<svg width="797" height="539" viewBox="0 0 797 539" fill="none" xmlns="http://www.w3.org/2000/svg">
<path d="M539.547 67.7874C539.936 67.7902 540.32 67.8612 540.697 68.0004C541.075 68.1397 541.416 68.3669 541.72 68.6823C542.027 68.9976 542.271 69.4237 542.453 69.9607C542.638 70.4948 542.732 71.1595 542.734 71.955C542.734 72.7192 542.658 73.3996 542.504 73.9962C542.351 74.5899 542.131 75.0914 541.844 75.5004C541.56 75.9095 541.215 76.2206 540.808 76.4337C540.402 76.6468 539.945 76.7533 539.436 76.7533C538.916 76.7533 538.455 76.651 538.051 76.4465C537.648 76.2419 537.32 75.9593 537.067 75.5985C536.814 75.2348 536.656 74.8172 536.594 74.3456H537.893C537.979 74.7206 538.152 75.0246 538.413 75.2576C538.678 75.4877 539.018 75.6027 539.436 75.6027C540.075 75.6027 540.574 75.3243 540.932 74.7675C541.29 74.2078 541.47 73.4266 541.473 72.4237H541.405C541.257 72.6681 541.072 72.8783 540.851 73.0544C540.632 73.2306 540.386 73.3669 540.114 73.4635C539.841 73.5601 539.55 73.6084 539.24 73.6084C538.737 73.6084 538.28 73.4848 537.868 73.2377C537.456 72.9905 537.128 72.651 536.884 72.2192C536.639 71.7874 536.517 71.2945 536.517 70.7405C536.517 70.1894 536.642 69.6894 536.892 69.2405C537.145 68.7916 537.497 68.4365 537.949 68.1752C538.403 67.911 538.936 67.7817 539.547 67.7874ZM539.551 68.8953C539.219 68.8953 538.919 68.9777 538.652 69.1425C538.388 69.3044 538.179 69.5246 538.026 69.803C537.872 70.0786 537.795 70.3854 537.795 70.7235C537.795 71.0615 537.869 71.3683 538.017 71.6439C538.168 71.9166 538.372 72.134 538.631 72.2959C538.892 72.455 539.19 72.5345 539.526 72.5345C539.776 72.5345 540.009 72.4862 540.224 72.3897C540.44 72.2931 540.629 72.1595 540.791 71.9891C540.953 71.8158 541.08 71.6198 541.17 71.401C541.261 71.1823 541.307 70.9522 541.307 70.7107C541.307 70.3897 541.23 70.0914 541.077 69.8158C540.926 69.5402 540.719 69.3186 540.455 69.151C540.19 68.9806 539.889 68.8953 539.551 68.8953ZM547.312 76.7789C546.639 76.776 546.064 76.5985 545.586 76.2462C545.109 75.8939 544.744 75.3811 544.491 74.7078C544.238 74.0345 544.112 73.2235 544.112 72.2746C544.112 71.3286 544.238 70.5203 544.491 69.8499C544.747 69.1794 545.113 68.6681 545.591 68.3158C546.071 67.9635 546.645 67.7874 547.312 67.7874C547.98 67.7874 548.552 67.9649 549.029 68.3201C549.507 68.6723 549.872 69.1837 550.125 69.8541C550.38 70.5218 550.508 71.3286 550.508 72.2746C550.508 73.2263 550.382 74.0388 550.129 74.7121C549.876 75.3826 549.511 75.8953 549.034 76.2504C548.556 76.6027 547.983 76.7789 547.312 76.7789ZM547.312 75.6411C547.903 75.6411 548.365 75.3527 548.697 74.776C549.032 74.1993 549.2 73.3655 549.2 72.2746C549.2 71.5502 549.123 70.9379 548.97 70.4379C548.819 69.9351 548.602 69.5544 548.318 69.2959C548.037 69.0345 547.701 68.9039 547.312 68.9039C546.724 68.9039 546.262 69.1936 545.927 69.7732C545.592 70.3527 545.423 71.1865 545.42 72.2746C545.42 73.0019 545.495 73.6169 545.646 74.1198C545.799 74.6198 546.017 74.999 546.298 75.2576C546.579 75.5132 546.917 75.6411 547.312 75.6411ZM555.213 76.634V70.0885H556.436V71.1539H556.517C556.653 70.7931 556.876 70.5118 557.186 70.3101C557.495 70.1056 557.866 70.0033 558.298 70.0033C558.735 70.0033 559.102 70.1056 559.397 70.3101C559.696 70.5147 559.916 70.7959 560.058 71.1539H560.126C560.282 70.8044 560.531 70.526 560.872 70.3186C561.213 70.1084 561.619 70.0033 562.091 70.0033C562.684 70.0033 563.169 70.1894 563.544 70.5615C563.922 70.9337 564.11 71.4948 564.11 72.2448V76.634H562.836V72.3641C562.836 71.9209 562.716 71.5999 562.474 71.401C562.233 71.2022 561.944 71.1027 561.609 71.1027C561.194 71.1027 560.872 71.2306 560.642 71.4862C560.412 71.7391 560.297 72.0644 560.297 72.4621V76.634H559.027V72.2831C559.027 71.928 558.916 71.6425 558.694 71.4266C558.473 71.2107 558.184 71.1027 557.829 71.1027C557.588 71.1027 557.365 71.1666 557.16 71.2945C556.958 71.4195 556.795 71.5942 556.67 71.8186C556.548 72.0431 556.487 72.303 556.487 72.5985V76.634H555.213ZM565.818 76.634V70.0885H567.041V71.1539H567.122C567.259 70.7931 567.482 70.5118 567.791 70.3101C568.101 70.1056 568.472 70.0033 568.903 70.0033C569.341 70.0033 569.707 70.1056 570.003 70.3101C570.301 70.5147 570.521 70.7959 570.663 71.1539H570.732C570.888 70.8044 571.136 70.526 571.477 70.3186C571.818 70.1084 572.224 70.0033 572.696 70.0033C573.29 70.0033 573.774 70.1894 574.149 70.5615C574.527 70.9337 574.716 71.4948 574.716 72.2448V76.634H573.442V72.3641C573.442 71.9209 573.321 71.5999 573.08 71.401C572.838 71.2022 572.55 71.1027 572.215 71.1027C571.8 71.1027 571.477 71.2306 571.247 71.4862C571.017 71.7391 570.902 72.0644 570.902 72.4621V76.634H569.632V72.2831C569.632 71.928 569.521 71.6425 569.3 71.4266C569.078 71.2107 568.79 71.1027 568.435 71.1027C568.193 71.1027 567.97 71.1666 567.766 71.2945C567.564 71.4195 567.401 71.5942 567.276 71.8186C567.153 72.0431 567.092 72.303 567.092 72.5985V76.634H565.818Z" fill="black"/>
<path d="M525.284 58.8662C525.089 58.6709 524.772 58.6709 524.577 58.8662L521.395 62.0482C521.2 62.2434 521.2 62.56 521.395 62.7553C521.59 62.9505 521.907 62.9505 522.102 62.7553L524.931 59.9268L527.759 62.7553C527.954 62.9505 528.271 62.9505 528.466 62.7553C528.661 62.56 528.661 62.2434 528.466 62.0482L525.284 58.8662ZM524.577 85.4019C524.772 85.5972 525.089 85.5972 525.284 85.4019L528.466 82.2199C528.661 82.0247 528.661 81.7081 528.466 81.5128C528.271 81.3175 527.954 81.3175 527.759 81.5128L524.931 84.3412L522.102 81.5128C521.907 81.3175 521.59 81.3175 521.395 81.5128C521.2 81.7081 521.2 82.0247 521.395 82.2199L524.577 85.4019ZM524.431 59.2197L524.431 85.0483L525.431 85.0483L525.431 59.2197L524.431 59.2197Z" fill="#B0B0B0"/>
<path d="M724.91 300.508V299.443L728.681 293.485H729.52V295.053H728.988L726.29 299.323V299.391H731.459V300.508H724.91ZM729.047 302.212V300.184L729.056 299.698V293.485H730.305V302.212H729.047ZM732.944 302.212V301.258L735.898 298.198C736.213 297.866 736.473 297.575 736.677 297.325C736.885 297.072 737.04 296.832 737.142 296.605C737.244 296.377 737.295 296.136 737.295 295.88C737.295 295.59 737.227 295.34 737.091 295.13C736.954 294.917 736.768 294.754 736.533 294.64C736.297 294.524 736.031 294.465 735.736 294.465C735.423 294.465 735.15 294.529 734.917 294.657C734.685 294.785 734.506 294.965 734.381 295.198C734.256 295.431 734.193 295.704 734.193 296.016H732.936C732.936 295.485 733.058 295.021 733.302 294.623C733.547 294.225 733.882 293.917 734.308 293.698C734.734 293.477 735.219 293.366 735.761 293.366C736.31 293.366 736.792 293.475 737.21 293.694C737.631 293.91 737.959 294.205 738.194 294.58C738.43 294.953 738.548 295.373 738.548 295.842C738.548 296.166 738.487 296.482 738.365 296.792C738.246 297.102 738.037 297.447 737.739 297.828C737.44 298.205 737.025 298.664 736.494 299.204L734.76 301.019V301.083H738.689V302.212H732.944ZM743.185 302.332C742.65 302.332 742.17 302.23 741.744 302.025C741.321 301.818 740.983 301.533 740.73 301.173C740.477 300.812 740.342 300.4 740.325 299.937H741.604C741.635 300.312 741.801 300.62 742.102 300.862C742.403 301.103 742.764 301.224 743.185 301.224C743.52 301.224 743.817 301.147 744.075 300.994C744.337 300.837 744.541 300.623 744.689 300.35C744.839 300.078 744.915 299.766 744.915 299.417C744.915 299.062 744.838 298.745 744.685 298.467C744.531 298.188 744.319 297.97 744.05 297.81C743.783 297.651 743.476 297.57 743.129 297.568C742.865 297.568 742.599 297.613 742.332 297.704C742.065 297.795 741.849 297.914 741.685 298.062L740.479 297.883L740.969 293.485H745.767V294.614H742.064L741.787 297.056H741.838C742.008 296.891 742.234 296.754 742.515 296.643C742.8 296.532 743.104 296.477 743.427 296.477C743.959 296.477 744.432 296.603 744.846 296.856C745.264 297.109 745.592 297.454 745.831 297.891C746.072 298.326 746.192 298.826 746.189 299.391C746.192 299.957 746.064 300.461 745.805 300.904C745.55 301.347 745.194 301.697 744.74 301.953C744.288 302.205 743.77 302.332 743.185 302.332ZM750.938 302.212V295.667H752.161V296.732H752.242C752.378 296.372 752.601 296.09 752.911 295.889C753.221 295.684 753.591 295.582 754.023 295.582C754.461 295.582 754.827 295.684 755.123 295.889C755.421 296.093 755.641 296.374 755.783 296.732H755.851C756.008 296.383 756.256 296.105 756.597 295.897C756.938 295.687 757.344 295.582 757.816 295.582C758.41 295.582 758.894 295.768 759.269 296.14C759.647 296.512 759.836 297.073 759.836 297.823V302.212H758.562V297.943C758.562 297.499 758.441 297.178 758.199 296.98C757.958 296.781 757.67 296.681 757.334 296.681C756.92 296.681 756.597 296.809 756.367 297.065C756.137 297.318 756.022 297.643 756.022 298.041V302.212H754.752V297.862C754.752 297.506 754.641 297.221 754.42 297.005C754.198 296.789 753.91 296.681 753.555 296.681C753.313 296.681 753.09 296.745 752.886 296.873C752.684 296.998 752.52 297.173 752.395 297.397C752.273 297.622 752.212 297.881 752.212 298.177V302.212H750.938ZM761.544 302.212V295.667H762.767V296.732H762.848C762.984 296.372 763.207 296.09 763.517 295.889C763.826 295.684 764.197 295.582 764.629 295.582C765.066 295.582 765.433 295.684 765.728 295.889C766.027 296.093 766.247 296.374 766.389 296.732H766.457C766.613 296.383 766.862 296.105 767.203 295.897C767.544 295.687 767.95 295.582 768.421 295.582C769.015 295.582 769.5 295.768 769.875 296.14C770.252 296.512 770.441 297.073 770.441 297.823V302.212H769.167V297.943C769.167 297.499 769.046 297.178 768.805 296.98C768.563 296.781 768.275 296.681 767.94 296.681C767.525 296.681 767.203 296.809 766.973 297.065C766.742 297.318 766.627 297.643 766.627 298.041V302.212H765.357V297.862C765.357 297.506 765.247 297.221 765.025 297.005C764.803 296.789 764.515 296.681 764.16 296.681C763.919 296.681 763.696 296.745 763.491 296.873C763.289 296.998 763.126 297.173 763.001 297.397C762.879 297.622 762.818 297.881 762.818 298.177V302.212H761.544Z" fill="black"/>
<path d="M717.732 157.319C717.537 157.123 717.221 157.123 717.025 157.319L713.843 160.5C713.648 160.696 713.648 161.012 713.843 161.208C714.039 161.403 714.355 161.403 714.55 161.208L717.379 158.379L720.207 161.208C720.403 161.403 720.719 161.403 720.914 161.208C721.11 161.012 721.11 160.696 720.914 160.5L717.732 157.319ZM717.025 438.106C717.221 438.302 717.537 438.302 717.732 438.106L720.914 434.924C721.11 434.729 721.11 434.412 720.914 434.217C720.719 434.022 720.403 434.022 720.207 434.217L717.379 437.046L714.55 434.217C714.355 434.022 714.039 434.022 713.843 434.217C713.648 434.412 713.648 434.729 713.843 434.924L717.025 438.106ZM716.879 157.672L716.879 437.753L717.879 437.753L717.879 157.672L716.879 157.672Z" fill="#B0B0B0"/>
<path d="M663.355 471.842C663.744 471.845 664.127 471.916 664.505 472.056C664.883 472.195 665.224 472.422 665.528 472.737C665.835 473.053 666.079 473.479 666.261 474.016C666.446 474.55 666.539 475.215 666.542 476.01C666.542 476.774 666.466 477.455 666.312 478.051C666.159 478.645 665.939 479.146 665.652 479.556C665.368 479.965 665.022 480.276 664.616 480.489C664.21 480.702 663.752 480.808 663.244 480.808C662.724 480.808 662.262 480.706 661.859 480.502C661.456 480.297 661.127 480.014 660.875 479.654C660.622 479.29 660.464 478.872 660.402 478.401H661.701C661.787 478.776 661.96 479.08 662.221 479.313C662.485 479.543 662.826 479.658 663.244 479.658C663.883 479.658 664.382 479.379 664.74 478.823C665.098 478.263 665.278 477.482 665.281 476.479H665.213C665.065 476.723 664.88 476.933 664.659 477.11C664.44 477.286 664.194 477.422 663.922 477.519C663.649 477.615 663.358 477.664 663.048 477.664C662.545 477.664 662.088 477.54 661.676 477.293C661.264 477.046 660.936 476.706 660.691 476.274C660.447 475.842 660.325 475.35 660.325 474.796C660.325 474.244 660.45 473.744 660.7 473.296C660.953 472.847 661.305 472.492 661.757 472.23C662.211 471.966 662.744 471.837 663.355 471.842ZM663.359 472.95C663.027 472.95 662.727 473.033 662.46 473.198C662.196 473.36 661.987 473.58 661.833 473.858C661.68 474.134 661.603 474.441 661.603 474.779C661.603 475.117 661.677 475.423 661.825 475.699C661.975 475.972 662.18 476.189 662.439 476.351C662.7 476.51 662.998 476.59 663.333 476.59C663.583 476.59 663.816 476.541 664.032 476.445C664.248 476.348 664.437 476.215 664.599 476.044C664.761 475.871 664.887 475.675 664.978 475.456C665.069 475.237 665.115 475.007 665.115 474.766C665.115 474.445 665.038 474.146 664.885 473.871C664.734 473.595 664.527 473.374 664.262 473.206C663.998 473.036 663.697 472.95 663.359 472.95ZM671.12 480.834C670.447 480.831 669.871 480.654 669.394 480.301C668.917 479.949 668.552 479.436 668.299 478.763C668.046 478.09 667.92 477.279 667.92 476.33C667.92 475.384 668.046 474.575 668.299 473.905C668.555 473.235 668.921 472.723 669.398 472.371C669.879 472.019 670.452 471.842 671.12 471.842C671.788 471.842 672.36 472.02 672.837 472.375C673.315 472.727 673.68 473.239 673.933 473.909C674.188 474.577 674.316 475.384 674.316 476.33C674.316 477.281 674.19 478.094 673.937 478.767C673.684 479.438 673.319 479.95 672.842 480.306C672.364 480.658 671.79 480.834 671.12 480.834ZM671.12 479.696C671.711 479.696 672.173 479.408 672.505 478.831C672.84 478.254 673.008 477.421 673.008 476.33C673.008 475.605 672.931 474.993 672.778 474.493C672.627 473.99 672.41 473.61 672.126 473.351C671.844 473.09 671.509 472.959 671.12 472.959C670.532 472.959 670.07 473.249 669.735 473.828C669.4 474.408 669.231 475.242 669.228 476.33C669.228 477.057 669.303 477.672 669.454 478.175C669.607 478.675 669.825 479.054 670.106 479.313C670.387 479.568 670.725 479.696 671.12 479.696ZM679.021 480.689V474.144H680.244V475.209H680.325C680.461 474.848 680.684 474.567 680.994 474.365C681.303 474.161 681.674 474.058 682.106 474.058C682.543 474.058 682.91 474.161 683.205 474.365C683.504 474.57 683.724 474.851 683.866 475.209H683.934C684.09 474.86 684.339 474.581 684.68 474.374C685.021 474.164 685.427 474.058 685.898 474.058C686.492 474.058 686.977 474.244 687.352 474.617C687.729 474.989 687.918 475.55 687.918 476.3V480.689H686.644V476.419C686.644 475.976 686.523 475.655 686.282 475.456C686.04 475.257 685.752 475.158 685.417 475.158C685.002 475.158 684.68 475.286 684.45 475.541C684.219 475.794 684.104 476.119 684.104 476.517V480.689H682.835V476.338C682.835 475.983 682.724 475.698 682.502 475.482C682.281 475.266 681.992 475.158 681.637 475.158C681.396 475.158 681.173 475.222 680.968 475.35C680.766 475.475 680.603 475.649 680.478 475.874C680.356 476.098 680.295 476.358 680.295 476.654V480.689H679.021ZM689.626 480.689V474.144H690.849V475.209H690.93C691.066 474.848 691.289 474.567 691.599 474.365C691.909 474.161 692.279 474.058 692.711 474.058C693.149 474.058 693.515 474.161 693.811 474.365C694.109 474.57 694.329 474.851 694.471 475.209H694.539C694.696 474.86 694.944 474.581 695.285 474.374C695.626 474.164 696.032 474.058 696.504 474.058C697.098 474.058 697.582 474.244 697.957 474.617C698.335 474.989 698.524 475.55 698.524 476.3V480.689H697.25V476.419C697.25 475.976 697.129 475.655 696.887 475.456C696.646 475.257 696.358 475.158 696.022 475.158C695.608 475.158 695.285 475.286 695.055 475.541C694.825 475.794 694.71 476.119 694.71 476.517V480.689H693.44V476.338C693.44 475.983 693.329 475.698 693.108 475.482C692.886 475.266 692.598 475.158 692.243 475.158C692.001 475.158 691.778 475.222 691.574 475.35C691.372 475.475 691.208 475.649 691.083 475.874C690.961 476.098 690.9 476.358 690.9 476.654V480.689H689.626Z" fill="black"/>
<path d="M692.881 463.024C693.076 462.829 693.076 462.512 692.881 462.317L689.699 459.135C689.504 458.94 689.187 458.94 688.992 459.135C688.797 459.33 688.797 459.647 688.992 459.842L691.82 462.671L688.992 465.499C688.797 465.694 688.797 466.011 688.992 466.206C689.187 466.401 689.504 466.401 689.699 466.206L692.881 463.024ZM666.345 462.317C666.15 462.512 666.15 462.829 666.345 463.024L669.527 466.206C669.722 466.401 670.039 466.401 670.234 466.206C670.43 466.011 670.43 465.694 670.234 465.499L667.406 462.671L670.234 459.842C670.43 459.647 670.43 459.33 670.234 459.135C670.039 458.94 669.722 458.94 669.527 459.135L666.345 462.317ZM692.527 462.171L666.699 462.171V463.171L692.527 463.171V462.171Z" fill="#B0B0B0"/>
<path d="M532.462 300.508V299.443L536.233 293.485H537.072V295.053H536.54L533.842 299.323V299.391H539.011V300.508H532.462ZM536.599 302.212V300.184L536.608 299.698V293.485H537.857V302.212H536.599ZM540.496 302.212V301.258L543.45 298.198C543.765 297.866 544.025 297.575 544.229 297.325C544.437 297.072 544.592 296.832 544.694 296.604C544.796 296.377 544.847 296.136 544.847 295.88C544.847 295.59 544.779 295.34 544.643 295.13C544.506 294.917 544.32 294.754 544.085 294.64C543.849 294.523 543.583 294.465 543.288 294.465C542.975 294.465 542.702 294.529 542.469 294.657C542.237 294.785 542.058 294.965 541.933 295.198C541.808 295.431 541.745 295.704 541.745 296.016H540.488C540.488 295.485 540.61 295.021 540.854 294.623C541.099 294.225 541.434 293.917 541.86 293.698C542.286 293.477 542.771 293.366 543.313 293.366C543.862 293.366 544.344 293.475 544.762 293.694C545.183 293.91 545.511 294.205 545.746 294.58C545.982 294.952 546.1 295.373 546.1 295.842C546.1 296.166 546.039 296.482 545.917 296.792C545.798 297.102 545.589 297.447 545.291 297.827C544.992 298.205 544.577 298.664 544.046 299.204L542.312 301.019V301.083H546.241V302.212H540.496ZM550.737 302.332C550.202 302.332 549.722 302.229 549.296 302.025C548.873 301.818 548.535 301.533 548.282 301.173C548.029 300.812 547.894 300.4 547.877 299.937H549.156C549.187 300.312 549.353 300.62 549.654 300.862C549.955 301.103 550.316 301.224 550.737 301.224C551.072 301.224 551.369 301.147 551.627 300.994C551.889 300.837 552.093 300.623 552.241 300.35C552.391 300.077 552.467 299.766 552.467 299.417C552.467 299.062 552.39 298.745 552.237 298.467C552.083 298.188 551.871 297.97 551.602 297.81C551.335 297.651 551.028 297.57 550.681 297.568C550.417 297.568 550.151 297.613 549.884 297.704C549.617 297.795 549.401 297.914 549.237 298.062L548.031 297.883L548.521 293.485H553.319V294.614H549.616L549.339 297.056H549.39C549.56 296.891 549.786 296.754 550.067 296.643C550.352 296.532 550.656 296.477 550.979 296.477C551.511 296.477 551.984 296.603 552.398 296.856C552.816 297.109 553.144 297.454 553.383 297.891C553.624 298.326 553.744 298.826 553.741 299.391C553.744 299.957 553.616 300.461 553.357 300.904C553.102 301.347 552.746 301.697 552.292 301.952C551.84 302.205 551.322 302.332 550.737 302.332ZM558.49 302.212V295.667H559.713V296.732H559.794C559.93 296.371 560.153 296.09 560.463 295.889C560.773 295.684 561.143 295.582 561.575 295.582C562.013 295.582 562.379 295.684 562.675 295.889C562.973 296.093 563.193 296.374 563.335 296.732H563.403C563.56 296.383 563.808 296.104 564.149 295.897C564.49 295.687 564.896 295.582 565.368 295.582C565.962 295.582 566.446 295.768 566.821 296.14C567.199 296.512 567.388 297.073 567.388 297.823V302.212H566.114V297.943C566.114 297.499 565.993 297.178 565.751 296.979C565.51 296.781 565.222 296.681 564.886 296.681C564.472 296.681 564.149 296.809 563.919 297.065C563.689 297.318 563.574 297.643 563.574 298.041V302.212H562.304V297.862C562.304 297.506 562.193 297.221 561.972 297.005C561.75 296.789 561.462 296.681 561.107 296.681C560.865 296.681 560.642 296.745 560.438 296.873C560.236 296.998 560.072 297.173 559.947 297.397C559.825 297.621 559.764 297.881 559.764 298.177V302.212H558.49ZM569.096 302.212V295.667H570.319V296.732H570.4C570.536 296.371 570.759 296.09 571.069 295.889C571.378 295.684 571.749 295.582 572.181 295.582C572.618 295.582 572.985 295.684 573.28 295.889C573.579 296.093 573.799 296.374 573.941 296.732H574.009C574.165 296.383 574.414 296.104 574.755 295.897C575.096 295.687 575.502 295.582 575.973 295.582C576.567 295.582 577.052 295.768 577.427 296.14C577.804 296.512 577.993 297.073 577.993 297.823V302.212H576.719V297.943C576.719 297.499 576.598 297.178 576.357 296.979C576.115 296.781 575.827 296.681 575.492 296.681C575.077 296.681 574.755 296.809 574.525 297.065C574.294 297.318 574.179 297.643 574.179 298.041V302.212H572.909V297.862C572.909 297.506 572.799 297.221 572.577 297.005C572.355 296.789 572.067 296.681 571.712 296.681C571.471 296.681 571.248 296.745 571.043 296.873C570.841 296.998 570.678 297.173 570.553 297.397C570.431 297.621 570.37 297.881 570.37 298.177V302.212H569.096Z" fill="black"/>
<path d="M525.284 157.319C525.089 157.123 524.772 157.123 524.577 157.319L521.395 160.5C521.2 160.696 521.2 161.012 521.395 161.208C521.59 161.403 521.907 161.403 522.102 161.208L524.931 158.379L527.759 161.208C527.954 161.403 528.271 161.403 528.466 161.208C528.661 161.012 528.661 160.696 528.466 160.5L525.284 157.319ZM524.577 438.106C524.772 438.302 525.089 438.302 525.284 438.106L528.466 434.924C528.661 434.729 528.661 434.412 528.466 434.217C528.271 434.022 527.954 434.022 527.759 434.217L524.931 437.046L522.102 434.217C521.907 434.022 521.59 434.022 521.395 434.217C521.2 434.412 521.2 434.729 521.395 434.924L524.577 438.106ZM524.431 157.672L524.431 437.753L525.431 437.753L525.431 157.672L524.431 157.672Z" fill="#B0B0B0"/>
<path d="M24.4079 462.317C24.2127 462.512 24.2127 462.829 24.4079 463.024L27.5899 466.206C27.7852 466.401 28.1017 466.401 28.297 466.206C28.4923 466.011 28.4923 465.694 28.297 465.499L25.4686 462.671L28.297 459.842C28.4923 459.647 28.4923 459.33 28.297 459.135C28.1017 458.94 27.7852 458.94 27.5899 459.135L24.4079 462.317ZM499.605 463.024C499.8 462.829 499.8 462.512 499.605 462.317L496.423 459.135C496.227 458.94 495.911 458.94 495.715 459.135C495.52 459.33 495.52 459.647 495.715 459.842L498.544 462.671L495.715 465.499C495.52 465.694 495.52 466.011 495.715 466.206C495.911 466.401 496.227 466.401 496.423 466.206L499.605 463.024ZM24.7615 463.171H499.251V462.171H24.7615V463.171Z" fill="#B0B0B0"/>
<path d="M244.047 480.689L247.857 473.155V473.091H243.451V471.962H249.221V473.129L245.424 480.689H244.047ZM250.703 480.689V479.735L253.656 476.675C253.971 476.342 254.231 476.051 254.436 475.801C254.643 475.548 254.798 475.308 254.9 475.081C255.002 474.854 255.054 474.612 255.054 474.357C255.054 474.067 254.985 473.817 254.849 473.607C254.713 473.394 254.527 473.23 254.291 473.117C254.055 473 253.789 472.942 253.494 472.942C253.181 472.942 252.909 473.006 252.676 473.134C252.443 473.262 252.264 473.442 252.139 473.675C252.014 473.908 251.951 474.181 251.951 474.493H250.694C250.694 473.962 250.816 473.497 251.061 473.1C251.305 472.702 251.64 472.394 252.066 472.175C252.492 471.953 252.977 471.842 253.519 471.842C254.068 471.842 254.551 471.952 254.968 472.171C255.389 472.387 255.717 472.682 255.953 473.057C256.188 473.429 256.306 473.85 256.306 474.318C256.306 474.642 256.245 474.959 256.123 475.269C256.004 475.578 255.795 475.923 255.497 476.304C255.198 476.682 254.784 477.141 254.252 477.681L252.518 479.496V479.56H256.447V480.689H250.703ZM261.1 480.834C260.427 480.831 259.852 480.654 259.375 480.301C258.897 479.949 258.532 479.436 258.279 478.763C258.027 478.09 257.9 477.279 257.9 476.33C257.9 475.384 258.027 474.575 258.279 473.905C258.535 473.235 258.902 472.723 259.379 472.371C259.859 472.019 260.433 471.842 261.1 471.842C261.768 471.842 262.34 472.02 262.818 472.375C263.295 472.727 263.66 473.239 263.913 473.909C264.169 474.577 264.296 475.384 264.296 476.33C264.296 477.281 264.17 478.094 263.917 478.767C263.664 479.438 263.299 479.95 262.822 480.306C262.345 480.658 261.771 480.834 261.1 480.834ZM261.1 479.696C261.691 479.696 262.153 479.408 262.485 478.831C262.821 478.254 262.988 477.421 262.988 476.33C262.988 475.605 262.911 474.993 262.758 474.493C262.607 473.99 262.39 473.61 262.106 473.351C261.825 473.09 261.49 472.959 261.1 472.959C260.512 472.959 260.051 473.249 259.715 473.828C259.38 474.408 259.211 475.242 259.208 476.33C259.208 477.057 259.284 477.672 259.434 478.175C259.588 478.675 259.805 479.054 260.086 479.313C260.367 479.568 260.705 479.696 261.1 479.696ZM269.001 480.689V474.144H270.224V475.209H270.305C270.441 474.848 270.664 474.567 270.974 474.365C271.284 474.161 271.654 474.058 272.086 474.058C272.524 474.058 272.89 474.161 273.186 474.365C273.484 474.57 273.704 474.851 273.846 475.209H273.914C274.071 474.86 274.319 474.581 274.66 474.374C275.001 474.164 275.407 474.058 275.879 474.058C276.473 474.058 276.957 474.244 277.332 474.617C277.71 474.989 277.899 475.55 277.899 476.3V480.689H276.625V476.419C276.625 475.976 276.504 475.655 276.262 475.456C276.021 475.257 275.732 475.158 275.397 475.158C274.982 475.158 274.66 475.286 274.43 475.541C274.2 475.794 274.085 476.119 274.085 476.517V480.689H272.815V476.338C272.815 475.983 272.704 475.698 272.482 475.482C272.261 475.266 271.973 475.158 271.617 475.158C271.376 475.158 271.153 475.222 270.948 475.35C270.747 475.475 270.583 475.649 270.458 475.874C270.336 476.098 270.275 476.358 270.275 476.654V480.689H269.001ZM279.606 480.689V474.144H280.829V475.209H280.91C281.047 474.848 281.27 474.567 281.579 474.365C281.889 474.161 282.26 474.058 282.692 474.058C283.129 474.058 283.496 474.161 283.791 474.365C284.089 474.57 284.31 474.851 284.452 475.209H284.52C284.676 474.86 284.925 474.581 285.266 474.374C285.606 474.164 286.013 474.058 286.484 474.058C287.078 474.058 287.562 474.244 287.937 474.617C288.315 474.989 288.504 475.55 288.504 476.3V480.689H287.23V476.419C287.23 475.976 287.109 475.655 286.868 475.456C286.626 475.257 286.338 475.158 286.003 475.158C285.588 475.158 285.266 475.286 285.035 475.541C284.805 475.794 284.69 476.119 284.69 476.517V480.689H283.42V476.338C283.42 475.983 283.31 475.698 283.088 475.482C282.866 475.266 282.578 475.158 282.223 475.158C281.981 475.158 281.758 475.222 281.554 475.35C281.352 475.475 281.189 475.649 281.064 475.874C280.942 476.098 280.881 476.358 280.881 476.654V480.689H279.606Z" fill="black"/>
<path d="M484.14 172.812H39.8722V422.613H484.14V172.812Z" stroke="#0069FF" stroke-width="2" stroke-miterlimit="10" stroke-linecap="round"/>
<rect x="207.785" y="282.833" width="108.442" height="29.7584" rx="1.8611" fill="#0069FF" stroke="#0069FF" stroke-width="0.744442"/>
<path d="M45.9722 414.821C45.8937 415.086 46.0446 415.364 46.3094 415.442L50.6237 416.722C50.8885 416.8 51.1667 416.649 51.2452 416.384C51.3237 416.12 51.1728 415.841 50.908 415.763L47.073 414.626L48.2102 410.791C48.2887 410.526 48.1377 410.248 47.8729 410.169C47.6082 410.091 47.3299 410.242 47.2514 410.506L45.9722 414.821ZM475.508 182.56C475.586 182.295 475.435 182.017 475.171 181.938L470.856 180.659C470.592 180.58 470.313 180.731 470.235 180.996C470.156 181.261 470.307 181.539 470.572 181.618L474.407 182.755L473.27 186.59C473.191 186.855 473.342 187.133 473.607 187.211C473.872 187.29 474.15 187.139 474.229 186.874L475.508 182.56ZM46.69 415.402L475.267 182.857L474.79 181.978L46.2131 414.523L46.69 415.402Z" fill="#0069FF"/>
<path d="M233.491 295.546H232.45L234.788 289.049H235.921L238.259 295.546H237.218L235.382 290.229H235.331L233.491 295.546ZM233.665 293.002H237.041V293.826H233.665V293.002ZM241.095 295.644C240.623 295.644 240.217 295.537 239.877 295.324C239.539 295.108 239.278 294.811 239.097 294.432C238.915 294.054 238.824 293.62 238.824 293.132C238.824 292.637 238.917 292.2 239.103 291.821C239.289 291.441 239.551 291.144 239.89 290.93C240.228 290.716 240.627 290.61 241.086 290.61C241.456 290.61 241.786 290.678 242.075 290.816C242.365 290.951 242.599 291.141 242.776 291.387C242.956 291.632 243.063 291.919 243.097 292.246H242.174C242.123 292.018 242.007 291.821 241.825 291.656C241.645 291.491 241.404 291.409 241.101 291.409C240.837 291.409 240.605 291.479 240.407 291.618C240.21 291.756 240.057 291.953 239.947 292.208C239.837 292.462 239.782 292.763 239.782 293.109C239.782 293.465 239.836 293.771 239.944 294.029C240.051 294.287 240.204 294.487 240.4 294.629C240.599 294.771 240.833 294.841 241.101 294.841C241.281 294.841 241.444 294.809 241.59 294.743C241.738 294.675 241.862 294.579 241.961 294.454C242.063 294.33 242.133 294.179 242.174 294.004H243.097C243.063 294.319 242.96 294.6 242.789 294.848C242.618 295.095 242.388 295.29 242.101 295.432C241.815 295.573 241.48 295.644 241.095 295.644ZM246.386 290.673V291.434H243.724V290.673H246.386ZM244.438 289.506H245.386V294.115C245.386 294.299 245.414 294.438 245.469 294.531C245.524 294.622 245.595 294.684 245.681 294.718C245.77 294.749 245.867 294.765 245.97 294.765C246.046 294.765 246.113 294.76 246.17 294.749C246.227 294.739 246.272 294.73 246.303 294.724L246.475 295.508C246.42 295.529 246.341 295.55 246.24 295.571C246.138 295.594 246.011 295.607 245.859 295.609C245.61 295.613 245.377 295.569 245.161 295.476C244.946 295.383 244.771 295.239 244.638 295.044C244.505 294.85 244.438 294.606 244.438 294.312V289.506ZM247.435 295.546V290.673H248.384V295.546H247.435ZM247.914 289.921C247.749 289.921 247.607 289.866 247.489 289.756C247.373 289.644 247.314 289.511 247.314 289.356C247.314 289.2 247.373 289.067 247.489 288.957C247.607 288.845 247.749 288.789 247.914 288.789C248.079 288.789 248.22 288.845 248.336 288.957C248.454 289.067 248.514 289.2 248.514 289.356C248.514 289.511 248.454 289.644 248.336 289.756C248.22 289.866 248.079 289.921 247.914 289.921ZM253.828 290.673L252.061 295.546H251.046L249.276 290.673H250.294L251.528 294.423H251.579L252.81 290.673H253.828ZM256.654 295.644C256.174 295.644 255.76 295.541 255.413 295.336C255.069 295.129 254.802 294.838 254.614 294.464C254.428 294.087 254.335 293.647 254.335 293.141C254.335 292.642 254.428 292.202 254.614 291.821C254.802 291.441 255.064 291.144 255.401 290.93C255.739 290.716 256.135 290.61 256.587 290.61C256.862 290.61 257.129 290.655 257.387 290.746C257.645 290.837 257.876 290.98 258.081 291.174C258.287 291.369 258.448 291.622 258.567 291.932C258.685 292.241 258.744 292.617 258.744 293.059V293.395H254.871V292.684H257.815C257.815 292.435 257.764 292.214 257.663 292.021C257.561 291.827 257.418 291.673 257.234 291.561C257.052 291.449 256.839 291.393 256.594 291.393C256.327 291.393 256.094 291.459 255.896 291.59C255.699 291.719 255.547 291.888 255.439 292.097C255.333 292.305 255.28 292.53 255.28 292.773V293.328C255.28 293.654 255.337 293.931 255.451 294.159C255.568 294.388 255.73 294.562 255.937 294.683C256.144 294.801 256.386 294.86 256.663 294.86C256.843 294.86 257.007 294.835 257.155 294.784C257.303 294.731 257.431 294.653 257.539 294.55C257.647 294.446 257.729 294.318 257.786 294.166L258.684 294.328C258.612 294.592 258.483 294.823 258.297 295.022C258.113 295.219 257.882 295.372 257.602 295.482C257.325 295.59 257.009 295.644 256.654 295.644ZM265.781 290.755C265.747 290.455 265.607 290.223 265.362 290.058C265.117 289.89 264.808 289.807 264.436 289.807C264.169 289.807 263.939 289.849 263.744 289.934C263.549 290.016 263.398 290.131 263.29 290.276C263.185 290.42 263.132 290.584 263.132 290.768C263.132 290.923 263.168 291.056 263.24 291.168C263.314 291.28 263.41 291.374 263.528 291.45C263.649 291.524 263.778 291.587 263.915 291.637C264.053 291.686 264.185 291.726 264.312 291.758L264.946 291.923C265.154 291.974 265.366 292.042 265.584 292.129C265.802 292.216 266.004 292.33 266.19 292.472C266.376 292.613 266.526 292.789 266.64 292.998C266.757 293.208 266.815 293.458 266.815 293.75C266.815 294.118 266.72 294.445 266.529 294.73C266.341 295.016 266.067 295.241 265.708 295.406C265.35 295.571 264.918 295.654 264.41 295.654C263.924 295.654 263.503 295.576 263.148 295.422C262.792 295.268 262.514 295.049 262.313 294.765C262.112 294.48 262.001 294.141 261.98 293.75H262.964C262.983 293.985 263.059 294.181 263.192 294.337C263.327 294.491 263.5 294.607 263.709 294.683C263.921 294.757 264.152 294.794 264.404 294.794C264.681 294.794 264.927 294.751 265.143 294.664C265.361 294.575 265.532 294.452 265.657 294.296C265.782 294.137 265.844 293.952 265.844 293.741C265.844 293.548 265.789 293.391 265.679 293.268C265.571 293.145 265.424 293.044 265.238 292.963C265.054 292.883 264.846 292.812 264.613 292.751L263.845 292.542C263.325 292.4 262.913 292.191 262.608 291.917C262.306 291.642 262.155 291.278 262.155 290.825C262.155 290.451 262.256 290.124 262.459 289.845C262.662 289.566 262.937 289.349 263.284 289.195C263.631 289.038 264.022 288.96 264.458 288.96C264.898 288.96 265.286 289.037 265.622 289.192C265.96 289.346 266.227 289.558 266.421 289.829C266.616 290.098 266.718 290.407 266.726 290.755H265.781ZM269.963 295.644C269.491 295.644 269.085 295.537 268.744 295.324C268.406 295.108 268.146 294.811 267.964 294.432C267.782 294.054 267.691 293.62 267.691 293.132C267.691 292.637 267.784 292.2 267.97 291.821C268.156 291.441 268.419 291.144 268.757 290.93C269.095 290.716 269.494 290.61 269.953 290.61C270.323 290.61 270.653 290.678 270.943 290.816C271.233 290.951 271.466 291.141 271.644 291.387C271.824 291.632 271.93 291.919 271.964 292.246H271.041C270.99 292.018 270.874 291.821 270.692 291.656C270.512 291.491 270.271 291.409 269.969 291.409C269.705 291.409 269.473 291.479 269.274 291.618C269.077 291.756 268.924 291.953 268.814 292.208C268.704 292.462 268.649 292.763 268.649 293.109C268.649 293.465 268.703 293.771 268.811 294.029C268.919 294.287 269.071 294.487 269.268 294.629C269.467 294.771 269.7 294.841 269.969 294.841C270.149 294.841 270.312 294.809 270.457 294.743C270.605 294.675 270.729 294.579 270.829 294.454C270.93 294.33 271.001 294.179 271.041 294.004H271.964C271.93 294.319 271.828 294.6 271.657 294.848C271.485 295.095 271.256 295.29 270.968 295.432C270.683 295.573 270.347 295.644 269.963 295.644ZM272.979 295.546V290.673H273.895V291.447H273.946C274.035 291.185 274.192 290.979 274.416 290.828C274.642 290.676 274.898 290.6 275.183 290.6C275.243 290.6 275.312 290.602 275.393 290.606C275.475 290.611 275.54 290.616 275.586 290.622V291.53C275.548 291.519 275.481 291.507 275.383 291.495C275.286 291.48 275.189 291.472 275.091 291.472C274.867 291.472 274.667 291.52 274.492 291.615C274.318 291.708 274.181 291.838 274.079 292.005C273.978 292.17 273.927 292.359 273.927 292.57V295.546H272.979ZM278.333 295.644C277.853 295.644 277.439 295.541 277.092 295.336C276.748 295.129 276.481 294.838 276.293 294.464C276.107 294.087 276.014 293.647 276.014 293.141C276.014 292.642 276.107 292.202 276.293 291.821C276.481 291.441 276.743 291.144 277.08 290.93C277.418 290.716 277.814 290.61 278.266 290.61C278.541 290.61 278.808 290.655 279.066 290.746C279.324 290.837 279.555 290.98 279.76 291.174C279.965 291.369 280.127 291.622 280.246 291.932C280.364 292.241 280.423 292.617 280.423 293.059V293.395H276.55V292.684H279.494C279.494 292.435 279.443 292.214 279.342 292.021C279.24 291.827 279.097 291.673 278.913 291.561C278.731 291.449 278.518 291.393 278.272 291.393C278.006 291.393 277.773 291.459 277.575 291.59C277.378 291.719 277.226 291.888 277.118 292.097C277.012 292.305 276.959 292.53 276.959 292.773V293.328C276.959 293.654 277.016 293.931 277.13 294.159C277.247 294.388 277.409 294.562 277.616 294.683C277.823 294.801 278.065 294.86 278.342 294.86C278.522 294.86 278.686 294.835 278.834 294.784C278.982 294.731 279.11 294.653 279.218 294.55C279.326 294.446 279.408 294.318 279.465 294.166L280.363 294.328C280.291 294.592 280.162 294.823 279.976 295.022C279.792 295.219 279.56 295.372 279.281 295.482C279.004 295.59 278.688 295.644 278.333 295.644ZM283.576 295.644C283.096 295.644 282.682 295.541 282.335 295.336C281.991 295.129 281.724 294.838 281.536 294.464C281.35 294.087 281.257 293.647 281.257 293.141C281.257 292.642 281.35 292.202 281.536 291.821C281.724 291.441 281.987 291.144 282.323 290.93C282.661 290.716 283.057 290.61 283.509 290.61C283.784 290.61 284.051 290.655 284.309 290.746C284.567 290.837 284.798 290.98 285.003 291.174C285.209 291.369 285.37 291.622 285.489 291.932C285.607 292.241 285.666 292.617 285.666 293.059V293.395H281.793V292.684H284.737C284.737 292.435 284.686 292.214 284.585 292.021C284.483 291.827 284.34 291.673 284.156 291.561C283.975 291.449 283.761 291.393 283.516 291.393C283.249 291.393 283.016 291.459 282.818 291.59C282.621 291.719 282.469 291.888 282.361 292.097C282.255 292.305 282.202 292.53 282.202 292.773V293.328C282.202 293.654 282.259 293.931 282.374 294.159C282.49 294.388 282.652 294.562 282.859 294.683C283.066 294.801 283.308 294.86 283.585 294.86C283.765 294.86 283.929 294.835 284.077 294.784C284.225 294.731 284.353 294.653 284.461 294.55C284.569 294.446 284.651 294.318 284.708 294.166L285.606 294.328C285.534 294.592 285.405 294.823 285.219 295.022C285.035 295.219 284.804 295.372 284.524 295.482C284.247 295.59 283.931 295.644 283.576 295.644ZM287.667 292.653V295.546H286.719V290.673H287.629V291.466H287.69C287.802 291.208 287.977 291.001 288.216 290.844C288.457 290.688 288.761 290.61 289.127 290.61C289.459 290.61 289.749 290.679 289.999 290.819C290.249 290.956 290.442 291.162 290.58 291.434C290.717 291.707 290.786 292.045 290.786 292.446V295.546H289.837V292.561C289.837 292.207 289.745 291.931 289.561 291.733C289.377 291.532 289.125 291.431 288.803 291.431C288.583 291.431 288.387 291.479 288.216 291.574C288.047 291.669 287.913 291.809 287.813 291.993C287.716 292.175 287.667 292.395 287.667 292.653Z" fill="white"/>
<path d="M217.255 306.801C216.965 306.797 216.68 306.744 216.399 306.643C216.119 306.541 215.866 306.372 215.637 306.135C215.409 305.898 215.226 305.58 215.088 305.18C214.953 304.78 214.885 304.281 214.885 303.683C214.885 303.116 214.941 302.613 215.054 302.173C215.168 301.733 215.332 301.362 215.545 301.059C215.759 300.755 216.017 300.523 216.319 300.365C216.622 300.206 216.961 300.127 217.338 300.127C217.725 300.127 218.068 300.203 218.369 300.355C218.669 300.507 218.912 300.718 219.098 300.986C219.286 301.255 219.406 301.561 219.457 301.903H218.489C218.424 301.632 218.294 301.411 218.099 301.24C217.904 301.069 217.651 300.983 217.338 300.983C216.862 300.983 216.491 301.19 216.224 301.605C215.96 302.019 215.827 302.596 215.824 303.334H215.872C215.984 303.15 216.122 302.993 216.284 302.864C216.449 302.733 216.633 302.633 216.836 302.563C217.042 302.491 217.257 302.455 217.484 302.455C217.86 302.455 218.2 302.547 218.505 302.731C218.812 302.913 219.056 303.165 219.238 303.486C219.42 303.808 219.511 304.176 219.511 304.59C219.511 305.005 219.417 305.38 219.228 305.716C219.042 306.053 218.78 306.319 218.442 306.516C218.103 306.71 217.708 306.805 217.255 306.801ZM217.252 305.976C217.501 305.976 217.725 305.915 217.921 305.792C218.118 305.67 218.273 305.505 218.388 305.298C218.502 305.09 218.559 304.859 218.559 304.603C218.559 304.353 218.503 304.126 218.391 303.921C218.281 303.716 218.129 303.553 217.934 303.432C217.742 303.312 217.522 303.251 217.274 303.251C217.086 303.251 216.911 303.287 216.751 303.359C216.592 303.431 216.453 303.531 216.332 303.657C216.211 303.784 216.116 303.93 216.046 304.095C215.979 304.258 215.945 304.43 215.945 304.612C215.945 304.856 216.001 305.081 216.113 305.288C216.227 305.495 216.383 305.662 216.579 305.789C216.778 305.914 217.002 305.976 217.252 305.976ZM222.827 300.127C223.116 300.129 223.402 300.182 223.683 300.285C223.964 300.389 224.218 300.558 224.444 300.793C224.673 301.028 224.855 301.345 224.99 301.745C225.128 302.142 225.197 302.637 225.199 303.229C225.199 303.798 225.142 304.305 225.028 304.749C224.914 305.191 224.75 305.564 224.536 305.869C224.325 306.173 224.068 306.405 223.766 306.563C223.463 306.722 223.123 306.801 222.744 306.801C222.357 306.801 222.013 306.725 221.713 306.573C221.413 306.421 221.168 306.21 220.98 305.942C220.792 305.671 220.675 305.36 220.628 305.009H221.596C221.659 305.288 221.788 305.514 221.983 305.688C222.179 305.859 222.433 305.945 222.744 305.945C223.22 305.945 223.591 305.737 223.858 305.323C224.124 304.906 224.258 304.325 224.26 303.578H224.21C224.1 303.76 223.962 303.917 223.797 304.048C223.634 304.179 223.451 304.28 223.248 304.352C223.045 304.424 222.829 304.46 222.598 304.46C222.224 304.46 221.883 304.368 221.577 304.184C221.27 304 221.026 303.747 220.844 303.426C220.662 303.104 220.571 302.737 220.571 302.325C220.571 301.915 220.664 301.543 220.85 301.208C221.038 300.874 221.301 300.61 221.637 300.415C221.975 300.219 222.372 300.122 222.827 300.127ZM222.83 300.951C222.582 300.951 222.359 301.013 222.16 301.135C221.964 301.256 221.808 301.42 221.694 301.627C221.58 301.832 221.523 302.061 221.523 302.312C221.523 302.564 221.578 302.792 221.688 302.998C221.8 303.201 221.952 303.362 222.144 303.483C222.339 303.601 222.561 303.661 222.811 303.661C222.997 303.661 223.17 303.625 223.331 303.553C223.492 303.481 223.632 303.381 223.753 303.255C223.873 303.126 223.968 302.98 224.035 302.817C224.103 302.654 224.137 302.483 224.137 302.303C224.137 302.064 224.08 301.842 223.965 301.637C223.853 301.432 223.699 301.267 223.502 301.142C223.306 301.015 223.081 300.951 222.83 300.951ZM226.39 306.712L229.226 301.104V301.056H225.946V300.215H230.241V301.085L227.415 306.712H226.39ZM230.865 306.773C230.692 306.773 230.543 306.711 230.418 306.589C230.293 306.464 230.231 306.314 230.231 306.138C230.231 305.965 230.293 305.817 230.418 305.694C230.543 305.569 230.692 305.507 230.865 305.507C231.039 305.507 231.188 305.569 231.313 305.694C231.437 305.817 231.5 305.965 231.5 306.138C231.5 306.255 231.47 306.361 231.411 306.459C231.354 306.554 231.278 306.63 231.182 306.687C231.087 306.744 230.982 306.773 230.865 306.773ZM232.811 306.712L235.647 301.104V301.056H232.367V300.215H236.662V301.085L233.835 306.712H232.811ZM240.142 306.712V301.84H241.052V302.633H241.113C241.214 302.364 241.38 302.155 241.611 302.005C241.841 301.852 242.117 301.776 242.439 301.776C242.764 301.776 243.037 301.852 243.257 302.005C243.479 302.157 243.643 302.366 243.749 302.633H243.8C243.916 302.373 244.101 302.165 244.355 302.011C244.609 301.854 244.911 301.776 245.262 301.776C245.704 301.776 246.065 301.915 246.344 302.192C246.625 302.469 246.766 302.887 246.766 303.445V306.712H245.817V303.534C245.817 303.204 245.727 302.965 245.548 302.817C245.368 302.669 245.153 302.595 244.904 302.595C244.595 302.595 244.355 302.69 244.183 302.88C244.012 303.068 243.927 303.311 243.927 303.607V306.712H242.981V303.473C242.981 303.209 242.899 302.997 242.734 302.836C242.569 302.675 242.354 302.595 242.09 302.595C241.91 302.595 241.744 302.642 241.592 302.737C241.442 302.831 241.32 302.961 241.227 303.128C241.136 303.295 241.09 303.488 241.09 303.708V306.712H240.142ZM248.037 306.712V301.84H248.948V302.633H249.008C249.109 302.364 249.275 302.155 249.506 302.005C249.736 301.852 250.012 301.776 250.334 301.776C250.66 301.776 250.932 301.852 251.152 302.005C251.374 302.157 251.538 302.366 251.644 302.633H251.695C251.811 302.373 251.996 302.165 252.25 302.011C252.504 301.854 252.806 301.776 253.157 301.776C253.599 301.776 253.96 301.915 254.239 302.192C254.52 302.469 254.661 302.887 254.661 303.445V306.712H253.712V303.534C253.712 303.204 253.623 302.965 253.443 302.817C253.263 302.669 253.048 302.595 252.799 302.595C252.49 302.595 252.25 302.69 252.079 302.88C251.907 303.068 251.822 303.311 251.822 303.607V306.712H250.876V303.473C250.876 303.209 250.794 302.997 250.629 302.836C250.464 302.675 250.249 302.595 249.985 302.595C249.805 302.595 249.639 302.642 249.487 302.737C249.337 302.831 249.215 302.961 249.122 303.128C249.031 303.295 248.986 303.488 248.986 303.708V306.712H248.037ZM259.055 300.215L260.609 302.756H260.66L262.214 300.215H263.35L261.326 303.464L263.363 306.712H262.221L260.66 304.206H260.609L259.048 306.712H257.906L259.978 303.464L257.919 300.215H259.055ZM268.86 306.801C268.424 306.801 268.035 306.726 267.692 306.576C267.352 306.426 267.082 306.218 266.883 305.951C266.686 305.682 266.581 305.372 266.566 305.018H267.562C267.575 305.211 267.639 305.378 267.756 305.52C267.874 305.659 268.028 305.767 268.219 305.843C268.409 305.919 268.621 305.957 268.853 305.957C269.109 305.957 269.335 305.913 269.532 305.824C269.731 305.735 269.886 305.612 269.998 305.453C270.11 305.292 270.167 305.107 270.167 304.898C270.167 304.68 270.11 304.489 269.998 304.324C269.888 304.157 269.727 304.025 269.513 303.93C269.302 303.835 269.046 303.788 268.745 303.788H268.197V302.988H268.745C268.986 302.988 269.198 302.945 269.38 302.858C269.564 302.771 269.708 302.651 269.811 302.496C269.915 302.34 269.967 302.157 269.967 301.948C269.967 301.747 269.921 301.572 269.83 301.424C269.741 301.274 269.615 301.157 269.45 301.072C269.287 300.987 269.094 300.945 268.872 300.945C268.661 300.945 268.463 300.984 268.279 301.062C268.097 301.139 267.949 301.249 267.835 301.392C267.721 301.534 267.659 301.704 267.651 301.903H266.702C266.713 301.552 266.817 301.243 267.013 300.977C267.212 300.71 267.474 300.502 267.8 300.352C268.126 300.202 268.487 300.127 268.885 300.127C269.302 300.127 269.661 300.208 269.963 300.371C270.268 300.532 270.503 300.746 270.668 301.015C270.835 301.283 270.917 301.577 270.915 301.897C270.917 302.261 270.816 302.569 270.611 302.823C270.408 303.077 270.137 303.247 269.799 303.334V303.385C270.23 303.45 270.564 303.621 270.801 303.899C271.04 304.176 271.158 304.519 271.156 304.93C271.158 305.287 271.059 305.607 270.858 305.891C270.659 306.174 270.388 306.397 270.043 306.56C269.698 306.721 269.304 306.801 268.86 306.801ZM274.516 300.127C274.806 300.129 275.091 300.182 275.372 300.285C275.654 300.389 275.907 300.558 276.134 300.793C276.362 301.028 276.544 301.345 276.679 301.745C276.817 302.142 276.887 302.637 276.889 303.229C276.889 303.798 276.832 304.305 276.717 304.749C276.603 305.191 276.439 305.564 276.226 305.869C276.014 306.173 275.757 306.405 275.455 306.563C275.152 306.722 274.812 306.801 274.433 306.801C274.046 306.801 273.703 306.725 273.402 306.573C273.102 306.421 272.858 306.21 272.669 305.942C272.481 305.671 272.364 305.36 272.317 305.009H273.285C273.348 305.288 273.477 305.514 273.672 305.688C273.869 305.859 274.122 305.945 274.433 305.945C274.909 305.945 275.28 305.737 275.547 305.323C275.813 304.906 275.948 304.325 275.95 303.578H275.899C275.789 303.76 275.651 303.917 275.487 304.048C275.324 304.179 275.141 304.28 274.938 304.352C274.735 304.424 274.518 304.46 274.287 304.46C273.913 304.46 273.573 304.368 273.266 304.184C272.959 304 272.715 303.747 272.533 303.426C272.351 303.104 272.26 302.737 272.26 302.325C272.26 301.915 272.353 301.543 272.539 301.208C272.728 300.874 272.99 300.61 273.326 300.415C273.665 300.219 274.061 300.122 274.516 300.127ZM274.519 300.951C274.272 300.951 274.048 301.013 273.85 301.135C273.653 301.256 273.497 301.42 273.383 301.627C273.269 301.832 273.212 302.061 273.212 302.312C273.212 302.564 273.267 302.792 273.377 302.998C273.489 303.201 273.641 303.362 273.834 303.483C274.028 303.601 274.25 303.661 274.5 303.661C274.686 303.661 274.859 303.625 275.02 303.553C275.181 303.481 275.322 303.381 275.442 303.255C275.563 303.126 275.657 302.98 275.724 302.817C275.792 302.654 275.826 302.483 275.826 302.303C275.826 302.064 275.769 301.842 275.655 301.637C275.543 301.432 275.388 301.267 275.192 301.142C274.995 301.015 274.771 300.951 274.519 300.951ZM278.035 306.712V306.002L280.233 303.724C280.468 303.477 280.661 303.26 280.814 303.074C280.968 302.886 281.083 302.707 281.159 302.538C281.236 302.368 281.274 302.189 281.274 301.998C281.274 301.783 281.223 301.596 281.121 301.44C281.02 301.281 280.881 301.16 280.706 301.075C280.53 300.988 280.333 300.945 280.113 300.945C279.88 300.945 279.677 300.993 279.504 301.088C279.33 301.183 279.197 301.317 279.104 301.491C279.011 301.664 278.964 301.867 278.964 302.1H278.028C278.028 301.704 278.119 301.359 278.301 301.062C278.483 300.766 278.733 300.537 279.05 300.374C279.367 300.209 279.728 300.127 280.132 300.127C280.54 300.127 280.899 300.208 281.21 300.371C281.523 300.532 281.767 300.752 281.943 301.031C282.119 301.308 282.206 301.621 282.206 301.97C282.206 302.211 282.161 302.447 282.07 302.677C281.981 302.908 281.826 303.165 281.604 303.448C281.382 303.729 281.073 304.071 280.677 304.473L279.386 305.824V305.872H282.311V306.712H278.035ZM284.151 306.773C283.978 306.773 283.828 306.711 283.704 306.589C283.579 306.464 283.517 306.314 283.517 306.138C283.517 305.965 283.579 305.817 283.704 305.694C283.828 305.569 283.978 305.507 284.151 305.507C284.324 305.507 284.474 305.569 284.598 305.694C284.723 305.817 284.785 305.965 284.785 306.138C284.785 306.255 284.756 306.361 284.697 306.459C284.64 306.554 284.563 306.63 284.468 306.687C284.373 306.744 284.267 306.773 284.151 306.773ZM288.07 306.801C287.634 306.801 287.245 306.726 286.902 306.576C286.562 306.426 286.292 306.218 286.093 305.951C285.897 305.682 285.791 305.372 285.776 305.018H286.772C286.785 305.211 286.849 305.378 286.966 305.52C287.084 305.659 287.238 305.767 287.429 305.843C287.619 305.919 287.831 305.957 288.063 305.957C288.319 305.957 288.545 305.913 288.742 305.824C288.941 305.735 289.096 305.612 289.208 305.453C289.321 305.292 289.377 305.107 289.377 304.898C289.377 304.68 289.321 304.489 289.208 304.324C289.099 304.157 288.937 304.025 288.723 303.93C288.512 303.835 288.256 303.788 287.955 303.788H287.407V302.988H287.955C288.197 302.988 288.408 302.945 288.59 302.858C288.774 302.771 288.918 302.651 289.021 302.496C289.125 302.34 289.177 302.157 289.177 301.948C289.177 301.747 289.131 301.572 289.04 301.424C288.952 301.274 288.825 301.157 288.66 301.072C288.497 300.987 288.304 300.945 288.082 300.945C287.871 300.945 287.673 300.984 287.489 301.062C287.307 301.139 287.159 301.249 287.045 301.392C286.931 301.534 286.869 301.704 286.861 301.903H285.912C285.923 301.552 286.027 301.243 286.223 300.977C286.422 300.71 286.684 300.502 287.01 300.352C287.336 300.202 287.697 300.127 288.095 300.127C288.512 300.127 288.871 300.208 289.174 300.371C289.478 300.532 289.713 300.746 289.878 301.015C290.045 301.283 290.127 301.577 290.125 301.897C290.127 302.261 290.026 302.569 289.821 302.823C289.618 303.077 289.347 303.247 289.009 303.334V303.385C289.44 303.45 289.774 303.621 290.011 303.899C290.25 304.176 290.368 304.519 290.366 304.93C290.368 305.287 290.269 305.607 290.068 305.891C289.869 306.174 289.598 306.397 289.253 306.56C288.908 306.721 288.514 306.801 288.07 306.801ZM293.942 306.712V301.84H294.853V302.633H294.913C295.015 302.364 295.181 302.155 295.411 302.005C295.642 301.852 295.918 301.776 296.239 301.776C296.565 301.776 296.838 301.852 297.058 302.005C297.28 302.157 297.444 302.366 297.549 302.633H297.6C297.716 302.373 297.901 302.165 298.155 302.011C298.409 301.854 298.711 301.776 299.063 301.776C299.505 301.776 299.865 301.915 300.144 302.192C300.426 302.469 300.566 302.887 300.566 303.445V306.712H299.618V303.534C299.618 303.204 299.528 302.965 299.348 302.817C299.168 302.669 298.954 302.595 298.704 302.595C298.395 302.595 298.155 302.69 297.984 302.88C297.813 303.068 297.727 303.311 297.727 303.607V306.712H296.782V303.473C296.782 303.209 296.699 302.997 296.534 302.836C296.369 302.675 296.155 302.595 295.89 302.595C295.71 302.595 295.544 302.642 295.392 302.737C295.242 302.831 295.12 302.961 295.027 303.128C294.936 303.295 294.891 303.488 294.891 303.708V306.712H293.942ZM301.838 306.712V301.84H302.748V302.633H302.808C302.91 302.364 303.076 302.155 303.306 302.005C303.537 301.852 303.813 301.776 304.134 301.776C304.46 301.776 304.733 301.852 304.953 302.005C305.175 302.157 305.339 302.366 305.445 302.633H305.495C305.612 302.373 305.797 302.165 306.05 302.011C306.304 301.854 306.607 301.776 306.958 301.776C307.4 301.776 307.76 301.915 308.039 302.192C308.321 302.469 308.461 302.887 308.461 303.445V306.712H307.513V303.534C307.513 303.204 307.423 302.965 307.243 302.817C307.063 302.669 306.849 302.595 306.599 302.595C306.29 302.595 306.05 302.69 305.879 302.88C305.708 303.068 305.622 303.311 305.622 303.607V306.712H304.677V303.473C304.677 303.209 304.594 302.997 304.429 302.836C304.264 302.675 304.05 302.595 303.785 302.595C303.606 302.595 303.44 302.642 303.287 302.737C303.137 302.831 303.016 302.961 302.922 303.128C302.832 303.295 302.786 303.488 302.786 303.708V306.712H301.838Z" fill="white"/>
</svg>
