<svg width="798" height="538" viewBox="0 0 798 538" fill="none" xmlns="http://www.w3.org/2000/svg">
<path d="M237.99 19.3405V18.2069H244.744V19.3405H242.021V26.9342H240.709V19.3405H237.99ZM247.943 27.0663C247.329 27.0663 246.793 26.9257 246.336 26.6444C245.879 26.3632 245.524 25.9697 245.271 25.464C245.018 24.9584 244.891 24.3674 244.891 23.6913C244.891 23.0123 245.018 22.4186 245.271 21.9101C245.524 21.4015 245.879 21.0066 246.336 20.7254C246.793 20.4441 247.329 20.3035 247.943 20.3035C248.556 20.3035 249.092 20.4441 249.549 20.7254C250.007 21.0066 250.362 21.4015 250.614 21.9101C250.867 22.4186 250.994 23.0123 250.994 23.6913C250.994 24.3674 250.867 24.9584 250.614 25.464C250.362 25.9697 250.007 26.3632 249.549 26.6444C249.092 26.9257 248.556 27.0663 247.943 27.0663ZM247.947 25.9967C248.345 25.9967 248.674 25.8916 248.936 25.6814C249.197 25.4711 249.39 25.1913 249.515 24.8419C249.643 24.4924 249.707 24.1075 249.707 23.687C249.707 23.2694 249.643 22.8859 249.515 22.5365C249.39 22.1842 249.197 21.9015 248.936 21.6885C248.674 21.4754 248.345 21.3689 247.947 21.3689C247.546 21.3689 247.214 21.4754 246.95 21.6885C246.688 21.9015 246.494 22.1842 246.366 22.5365C246.241 22.8859 246.178 23.2694 246.178 23.687C246.178 24.1075 246.241 24.4924 246.366 24.8419C246.494 25.1913 246.688 25.4711 246.95 25.6814C247.214 25.8916 247.546 25.9967 247.947 25.9967ZM252.416 29.3887V20.3887H253.66V21.4498H253.767C253.841 21.3135 253.947 21.1558 254.086 20.9768C254.226 20.7978 254.419 20.6416 254.666 20.5081C254.913 20.3717 255.24 20.3035 255.646 20.3035C256.175 20.3035 256.646 20.437 257.061 20.7041C257.476 20.9711 257.801 21.3561 258.037 21.8589C258.275 22.3618 258.395 22.9669 258.395 23.6743C258.395 24.3816 258.277 24.9882 258.041 25.4939C257.805 25.9967 257.481 26.3845 257.069 26.6572C256.657 26.9271 256.187 27.062 255.659 27.062C255.261 27.062 254.936 26.9953 254.683 26.8618C254.433 26.7282 254.237 26.572 254.095 26.393C253.953 26.214 253.844 26.0549 253.767 25.9157H253.69V29.3887H252.416ZM253.665 23.6615C253.665 24.1217 253.731 24.5251 253.865 24.8717C253.998 25.2183 254.192 25.4896 254.444 25.6856C254.697 25.8788 255.007 25.9754 255.373 25.9754C255.754 25.9754 256.072 25.8745 256.328 25.6728C256.584 25.4683 256.777 25.1913 256.907 24.8419C257.041 24.4924 257.108 24.099 257.108 23.6615C257.108 23.2297 257.042 22.8419 256.912 22.4981C256.784 22.1544 256.591 21.8831 256.332 21.6842C256.076 21.4853 255.757 21.3859 255.373 21.3859C255.004 21.3859 254.692 21.4811 254.436 21.6714C254.183 21.8618 253.991 22.1274 253.861 22.4683C253.73 22.8092 253.665 23.2069 253.665 23.6615ZM263.838 26.9342H262.44L265.58 18.2069H267.102L270.242 26.9342H268.845L266.377 19.7922H266.309L263.838 26.9342ZM264.072 23.5166H268.606V24.6245H264.072V23.5166ZM272.675 23.0478V26.9342H271.4V20.3887H272.623V21.4541H272.704C272.855 21.1075 273.091 20.8291 273.412 20.6189C273.736 20.4086 274.143 20.3035 274.635 20.3035C275.081 20.3035 275.471 20.3973 275.807 20.5848C276.142 20.7694 276.402 21.045 276.586 21.4115C276.771 21.778 276.863 22.2311 276.863 22.7709V26.9342H275.589V22.9243C275.589 22.4498 275.466 22.0791 275.219 21.812C274.971 21.5422 274.632 21.4072 274.2 21.4072C273.905 21.4072 273.642 21.4711 273.412 21.599C273.184 21.7268 273.004 21.9143 272.871 22.1615C272.74 22.4058 272.675 22.7012 272.675 23.0478ZM281.317 29.5251C280.797 29.5251 280.349 29.4569 279.974 29.3206C279.602 29.1842 279.298 29.0038 279.062 28.7794C278.826 28.5549 278.65 28.3092 278.534 28.0422L279.629 27.5905C279.706 27.7155 279.808 27.8476 279.936 27.9868C280.067 28.1288 280.243 28.2495 280.464 28.349C280.689 28.4484 280.977 28.4981 281.329 28.4981C281.812 28.4981 282.211 28.3802 282.527 28.1444C282.842 27.9115 283 27.5393 283 27.028V25.741H282.919C282.842 25.8802 282.731 26.0351 282.586 26.2055C282.444 26.376 282.248 26.5237 281.998 26.6487C281.748 26.7737 281.423 26.8362 281.023 26.8362C280.505 26.8362 280.04 26.7155 279.625 26.474C279.213 26.2297 278.886 25.8703 278.645 25.3959C278.406 24.9186 278.287 24.3319 278.287 23.6359C278.287 22.9399 278.405 22.3433 278.64 21.8461C278.879 21.349 279.206 20.9683 279.621 20.7041C280.035 20.437 280.505 20.3035 281.031 20.3035C281.437 20.3035 281.765 20.3717 282.015 20.5081C282.265 20.6416 282.46 20.7978 282.599 20.9768C282.741 21.1558 282.851 21.3135 282.927 21.4498H283.021V20.3887H284.27V27.0791C284.27 27.6416 284.139 28.1032 283.878 28.464C283.616 28.8248 283.263 29.0919 282.817 29.2652C282.373 29.4385 281.873 29.5251 281.317 29.5251ZM281.304 25.7794C281.67 25.7794 281.98 25.6941 282.233 25.5237C282.488 25.3504 282.682 25.1032 282.812 24.7822C282.946 24.4584 283.013 24.0706 283.013 23.6189C283.013 23.1785 282.947 22.7907 282.817 22.4555C282.686 22.1203 282.494 21.8589 282.241 21.6714C281.988 21.4811 281.676 21.3859 281.304 21.3859C280.92 21.3859 280.601 21.4853 280.345 21.6842C280.089 21.8802 279.896 22.1473 279.765 22.4853C279.638 22.8234 279.574 23.2012 279.574 23.6189C279.574 24.0478 279.639 24.4243 279.77 24.7481C279.9 25.072 280.094 25.3248 280.349 25.5066C280.608 25.6885 280.926 25.7794 281.304 25.7794ZM287.253 18.2069V26.9342H285.978V18.2069H287.253ZM291.788 27.0663C291.143 27.0663 290.588 26.9285 290.122 26.653C289.659 26.3745 289.301 25.9839 289.048 25.4811C288.798 24.9754 288.673 24.3831 288.673 23.7041C288.673 23.0336 288.798 22.4427 289.048 21.9314C289.301 21.42 289.653 21.0209 290.105 20.7339C290.559 20.447 291.09 20.3035 291.698 20.3035C292.068 20.3035 292.426 20.3646 292.772 20.4868C293.119 20.6089 293.43 20.8007 293.705 21.062C293.981 21.3234 294.198 21.6629 294.357 22.0805C294.516 22.4953 294.596 22.9995 294.596 23.5933V24.045H289.393V23.0905H293.347C293.347 22.7552 293.279 22.4584 293.143 22.1998C293.007 21.9385 292.815 21.7325 292.568 21.5819C292.323 21.4314 292.036 21.3561 291.707 21.3561C291.349 21.3561 291.036 21.4441 290.769 21.6203C290.505 21.7936 290.301 22.0209 290.156 22.3021C290.014 22.5805 289.943 22.8831 289.943 23.2098V23.9555C289.943 24.393 290.019 24.7652 290.173 25.072C290.329 25.3788 290.546 25.6132 290.825 25.7751C291.103 25.9342 291.428 26.0137 291.801 26.0137C292.042 26.0137 292.262 25.9797 292.461 25.9115C292.66 25.8405 292.832 25.7353 292.977 25.5961C293.122 25.4569 293.232 25.2851 293.309 25.0805L294.515 25.2978C294.418 25.653 294.245 25.964 293.995 26.2311C293.748 26.4953 293.437 26.7012 293.062 26.849C292.69 26.9939 292.265 27.0663 291.788 27.0663Z" fill="#0069FF"/>
<path d="M656.825 513.631C656.779 513.228 656.592 512.915 656.262 512.694C655.933 512.469 655.518 512.357 655.018 512.357C654.66 512.357 654.35 512.414 654.089 512.528C653.828 512.638 653.624 512.792 653.48 512.988C653.337 513.181 653.266 513.401 653.266 513.648C653.266 513.856 653.315 514.035 653.411 514.185C653.511 514.336 653.64 514.462 653.799 514.564C653.961 514.664 654.134 514.748 654.319 514.816C654.504 514.881 654.681 514.935 654.852 514.978L655.704 515.199C655.982 515.268 656.268 515.36 656.561 515.476C656.853 515.593 657.124 515.746 657.374 515.937C657.624 516.127 657.826 516.363 657.98 516.644C658.136 516.925 658.214 517.262 658.214 517.654C658.214 518.148 658.086 518.587 657.83 518.971C657.578 519.354 657.21 519.657 656.727 519.878C656.247 520.1 655.666 520.211 654.984 520.211C654.33 520.211 653.765 520.107 653.288 519.9C652.811 519.692 652.437 519.398 652.167 519.018C651.897 518.634 651.748 518.18 651.72 517.654H653.041C653.066 517.969 653.168 518.232 653.347 518.442C653.529 518.65 653.761 518.805 654.042 518.907C654.326 519.006 654.637 519.056 654.975 519.056C655.347 519.056 655.678 518.998 655.968 518.881C656.261 518.762 656.491 518.597 656.659 518.387C656.826 518.174 656.91 517.925 656.91 517.641C656.91 517.383 656.836 517.171 656.688 517.006C656.543 516.841 656.346 516.705 656.096 516.597C655.849 516.489 655.569 516.394 655.257 516.312L654.225 516.03C653.526 515.84 652.972 515.56 652.563 515.191C652.157 514.822 651.954 514.333 651.954 513.725C651.954 513.222 652.09 512.783 652.363 512.408C652.636 512.033 653.005 511.742 653.471 511.535C653.937 511.324 654.462 511.219 655.048 511.219C655.639 511.219 656.16 511.323 656.612 511.53C657.066 511.738 657.424 512.023 657.686 512.387C657.947 512.748 658.083 513.163 658.095 513.631H656.825ZM659.685 520.066V513.52H660.959V520.066H659.685ZM660.329 512.511C660.107 512.511 659.917 512.437 659.758 512.289C659.601 512.138 659.523 511.959 659.523 511.752C659.523 511.542 659.601 511.363 659.758 511.215C659.917 511.064 660.107 510.989 660.329 510.989C660.55 510.989 660.739 511.064 660.895 511.215C661.054 511.363 661.134 511.542 661.134 511.752C661.134 511.959 661.054 512.138 660.895 512.289C660.739 512.437 660.55 512.511 660.329 512.511ZM665.124 520.194C664.595 520.194 664.124 520.059 663.709 519.789C663.297 519.516 662.973 519.128 662.737 518.626C662.504 518.12 662.388 517.513 662.388 516.806C662.388 516.099 662.506 515.493 662.742 514.991C662.98 514.488 663.307 514.103 663.722 513.836C664.136 513.569 664.607 513.435 665.132 513.435C665.538 513.435 665.865 513.503 666.112 513.64C666.362 513.773 666.556 513.93 666.692 514.109C666.831 514.288 666.939 514.445 667.016 514.582H667.092V511.339H668.367V520.066H667.122V519.047H667.016C666.939 519.187 666.828 519.346 666.683 519.525C666.541 519.704 666.345 519.86 666.095 519.993C665.845 520.127 665.521 520.194 665.124 520.194ZM665.405 519.107C665.771 519.107 666.081 519.011 666.334 518.817C666.59 518.621 666.783 518.35 666.913 518.003C667.047 517.657 667.114 517.253 667.114 516.793C667.114 516.339 667.048 515.941 666.918 515.6C666.787 515.259 666.595 514.993 666.342 514.803C666.09 514.613 665.777 514.518 665.405 514.518C665.021 514.518 664.702 514.617 664.446 514.816C664.19 515.015 663.997 515.286 663.867 515.63C663.739 515.974 663.675 516.361 663.675 516.793C663.675 517.231 663.74 517.624 663.871 517.974C664.002 518.323 664.195 518.6 664.45 518.805C664.709 519.006 665.027 519.107 665.405 519.107ZM673.006 520.198C672.361 520.198 671.806 520.06 671.34 519.785C670.877 519.506 670.519 519.116 670.266 518.613C670.016 518.107 669.891 517.515 669.891 516.836C669.891 516.165 670.016 515.574 670.266 515.063C670.519 514.552 670.871 514.153 671.323 513.866C671.777 513.579 672.309 513.435 672.917 513.435C673.286 513.435 673.644 513.496 673.991 513.618C674.337 513.741 674.648 513.932 674.924 514.194C675.199 514.455 675.417 514.795 675.576 515.212C675.735 515.627 675.814 516.131 675.814 516.725V517.177H670.611V516.222H674.566C674.566 515.887 674.498 515.59 674.361 515.332C674.225 515.07 674.033 514.864 673.786 514.714C673.542 514.563 673.255 514.488 672.925 514.488C672.567 514.488 672.255 514.576 671.988 514.752C671.723 514.925 671.519 515.153 671.374 515.434C671.232 515.712 671.161 516.015 671.161 516.341V517.087C671.161 517.525 671.238 517.897 671.391 518.204C671.547 518.511 671.765 518.745 672.043 518.907C672.322 519.066 672.647 519.145 673.019 519.145C673.26 519.145 673.481 519.111 673.679 519.043C673.878 518.972 674.05 518.867 674.195 518.728C674.34 518.589 674.451 518.417 674.527 518.212L675.733 518.43C675.637 518.785 675.464 519.096 675.214 519.363C674.966 519.627 674.655 519.833 674.28 519.981C673.908 520.126 673.483 520.198 673.006 520.198ZM681.243 520.066H679.846L682.986 511.339H684.508L687.648 520.066H686.25L683.783 512.924H683.715L681.243 520.066ZM681.478 516.648H686.012V517.756H681.478V516.648ZM690.08 516.18V520.066H688.806V513.52H690.029V514.586H690.11C690.261 514.239 690.497 513.961 690.818 513.751C691.141 513.54 691.549 513.435 692.041 513.435C692.487 513.435 692.877 513.529 693.212 513.716C693.548 513.901 693.808 514.177 693.992 514.543C694.177 514.91 694.269 515.363 694.269 515.903V520.066H692.995V516.056C692.995 515.582 692.872 515.211 692.624 514.944C692.377 514.674 692.038 514.539 691.606 514.539C691.311 514.539 691.048 514.603 690.818 514.731C690.59 514.859 690.41 515.046 690.276 515.293C690.146 515.538 690.08 515.833 690.08 516.18ZM698.722 522.657C698.203 522.657 697.755 522.589 697.38 522.452C697.008 522.316 696.704 522.136 696.468 521.911C696.232 521.687 696.056 521.441 695.94 521.174L697.035 520.722C697.112 520.847 697.214 520.979 697.342 521.118C697.472 521.261 697.649 521.381 697.87 521.481C698.095 521.58 698.383 521.63 698.735 521.63C699.218 521.63 699.617 521.512 699.933 521.276C700.248 521.043 700.406 520.671 700.406 520.16V518.873H700.325C700.248 519.012 700.137 519.167 699.992 519.337C699.85 519.508 699.654 519.655 699.404 519.78C699.154 519.905 698.829 519.968 698.428 519.968C697.911 519.968 697.445 519.847 697.031 519.606C696.619 519.361 696.292 519.002 696.051 518.528C695.812 518.05 695.693 517.464 695.693 516.768C695.693 516.072 695.811 515.475 696.046 514.978C696.285 514.481 696.612 514.1 697.026 513.836C697.441 513.569 697.911 513.435 698.437 513.435C698.843 513.435 699.171 513.503 699.421 513.64C699.671 513.773 699.866 513.93 700.005 514.109C700.147 514.288 700.257 514.445 700.333 514.582H700.427V513.52H701.676V520.211C701.676 520.773 701.545 521.235 701.284 521.596C701.022 521.957 700.668 522.224 700.222 522.397C699.779 522.57 699.279 522.657 698.722 522.657ZM698.71 518.911C699.076 518.911 699.386 518.826 699.639 518.655C699.894 518.482 700.087 518.235 700.218 517.914C700.352 517.59 700.418 517.202 700.418 516.751C700.418 516.31 700.353 515.922 700.222 515.587C700.092 515.252 699.9 514.991 699.647 514.803C699.394 514.613 699.082 514.518 698.71 514.518C698.326 514.518 698.007 514.617 697.751 514.816C697.495 515.012 697.302 515.279 697.171 515.617C697.043 515.955 696.98 516.333 696.98 516.751C696.98 517.18 697.045 517.556 697.176 517.88C697.306 518.204 697.499 518.457 697.755 518.638C698.014 518.82 698.332 518.911 698.71 518.911ZM704.659 511.339V520.066H703.384V511.339H704.659ZM709.194 520.198C708.549 520.198 707.993 520.06 707.527 519.785C707.064 519.506 706.706 519.116 706.454 518.613C706.204 518.107 706.079 517.515 706.079 516.836C706.079 516.165 706.204 515.574 706.454 515.063C706.706 514.552 707.059 514.153 707.51 513.866C707.965 513.579 708.496 513.435 709.104 513.435C709.473 513.435 709.831 513.496 710.178 513.618C710.525 513.741 710.836 513.932 711.111 514.194C711.387 514.455 711.604 514.795 711.763 515.212C711.922 515.627 712.002 516.131 712.002 516.725V517.177H706.799V516.222H710.753C710.753 515.887 710.685 515.59 710.549 515.332C710.412 515.07 710.221 514.864 709.973 514.714C709.729 514.563 709.442 514.488 709.113 514.488C708.755 514.488 708.442 514.576 708.175 514.752C707.911 514.925 707.706 515.153 707.562 515.434C707.42 515.712 707.348 516.015 707.348 516.341V517.087C707.348 517.525 707.425 517.897 707.579 518.204C707.735 518.511 707.952 518.745 708.231 518.907C708.509 519.066 708.834 519.145 709.206 519.145C709.448 519.145 709.668 519.111 709.867 519.043C710.066 518.972 710.238 518.867 710.383 518.728C710.527 518.589 710.638 518.417 710.715 518.212L711.921 518.43C711.824 518.785 711.651 519.096 711.401 519.363C711.154 519.627 710.843 519.833 710.468 519.981C710.096 520.126 709.671 520.198 709.194 520.198Z" fill="#0069FF"/>
<path d="M229.958 520.066V511.339H235.37V512.472H231.274V515.131H234.982V516.261H231.274V520.066H229.958ZM236.805 520.066V513.52H238.036V514.56H238.104C238.224 514.208 238.434 513.931 238.735 513.729C239.039 513.525 239.383 513.422 239.766 513.422C239.846 513.422 239.939 513.425 240.047 513.431C240.158 513.437 240.245 513.444 240.307 513.452V514.671C240.256 514.657 240.165 514.641 240.035 514.624C239.904 514.604 239.773 514.594 239.643 514.594C239.341 514.594 239.073 514.658 238.837 514.786C238.604 514.911 238.42 515.086 238.283 515.31C238.147 515.532 238.079 515.785 238.079 516.069V520.066H236.805ZM243.933 520.198C243.319 520.198 242.784 520.057 242.326 519.776C241.869 519.495 241.514 519.101 241.261 518.596C241.008 518.09 240.882 517.499 240.882 516.823C240.882 516.144 241.008 515.55 241.261 515.042C241.514 514.533 241.869 514.138 242.326 513.857C242.784 513.576 243.319 513.435 243.933 513.435C244.546 513.435 245.082 513.576 245.539 513.857C245.997 514.138 246.352 514.533 246.605 515.042C246.857 515.55 246.984 516.144 246.984 516.823C246.984 517.499 246.857 518.09 246.605 518.596C246.352 519.101 245.997 519.495 245.539 519.776C245.082 520.057 244.546 520.198 243.933 520.198ZM243.937 519.128C244.335 519.128 244.664 519.023 244.926 518.813C245.187 518.603 245.38 518.323 245.505 517.974C245.633 517.624 245.697 517.239 245.697 516.819C245.697 516.401 245.633 516.018 245.505 515.668C245.38 515.316 245.187 515.033 244.926 514.82C244.664 514.607 244.335 514.501 243.937 514.501C243.536 514.501 243.204 514.607 242.94 514.82C242.678 515.033 242.484 515.316 242.356 515.668C242.231 516.018 242.169 516.401 242.169 516.819C242.169 517.239 242.231 517.624 242.356 517.974C242.484 518.323 242.678 518.603 242.94 518.813C243.204 519.023 243.536 519.128 243.937 519.128ZM249.68 516.18V520.066H248.406V513.52H249.629V514.586H249.71C249.861 514.239 250.096 513.961 250.417 513.751C250.741 513.54 251.149 513.435 251.64 513.435C252.086 513.435 252.477 513.529 252.812 513.716C253.148 513.901 253.408 514.177 253.592 514.543C253.777 514.91 253.869 515.363 253.869 515.903V520.066H252.595V516.056C252.595 515.582 252.471 515.211 252.224 514.944C251.977 514.674 251.638 514.539 251.206 514.539C250.91 514.539 250.648 514.603 250.417 514.731C250.19 514.859 250.01 515.046 249.876 515.293C249.746 515.538 249.68 515.833 249.68 516.18ZM258.633 513.52V514.543H255.058V513.52H258.633ZM256.017 511.952H257.291V518.144C257.291 518.391 257.328 518.577 257.402 518.702C257.476 518.824 257.571 518.908 257.687 518.954C257.807 518.996 257.936 519.018 258.075 519.018C258.177 519.018 258.267 519.011 258.344 518.996C258.42 518.982 258.48 518.971 258.523 518.962L258.753 520.015C258.679 520.043 258.574 520.072 258.437 520.1C258.301 520.131 258.131 520.148 257.926 520.151C257.591 520.157 257.278 520.097 256.988 519.972C256.699 519.847 256.464 519.654 256.285 519.393C256.106 519.131 256.017 518.803 256.017 518.408V511.952ZM264.058 520.066H262.66L265.801 511.339H267.322L270.463 520.066H269.065L266.598 512.924H266.53L264.058 520.066ZM264.292 516.648H268.827V517.756H264.292V516.648ZM272.895 516.18V520.066H271.621V513.52H272.844V514.586H272.925C273.075 514.239 273.311 513.961 273.632 513.751C273.956 513.54 274.364 513.435 274.855 513.435C275.301 513.435 275.692 513.529 276.027 513.716C276.362 513.901 276.622 514.177 276.807 514.543C276.992 514.91 277.084 515.363 277.084 515.903V520.066H275.81V516.056C275.81 515.582 275.686 515.211 275.439 514.944C275.192 514.674 274.852 514.539 274.421 514.539C274.125 514.539 273.862 514.603 273.632 514.731C273.405 514.859 273.225 515.046 273.091 515.293C272.96 515.538 272.895 515.833 272.895 516.18ZM281.537 522.657C281.017 522.657 280.57 522.589 280.195 522.452C279.823 522.316 279.519 522.136 279.283 521.911C279.047 521.687 278.871 521.441 278.754 521.174L279.85 520.722C279.926 520.847 280.029 520.979 280.156 521.118C280.287 521.261 280.463 521.381 280.685 521.481C280.909 521.58 281.198 521.63 281.55 521.63C282.033 521.63 282.432 521.512 282.747 521.276C283.063 521.043 283.22 520.671 283.22 520.16V518.873H283.139C283.063 519.012 282.952 519.167 282.807 519.337C282.665 519.508 282.469 519.655 282.219 519.78C281.969 519.905 281.644 519.968 281.243 519.968C280.726 519.968 280.26 519.847 279.845 519.606C279.433 519.361 279.107 519.002 278.865 518.528C278.627 518.05 278.507 517.464 278.507 516.768C278.507 516.072 278.625 515.475 278.861 514.978C279.1 514.481 279.426 514.1 279.841 513.836C280.256 513.569 280.726 513.435 281.252 513.435C281.658 513.435 281.986 513.503 282.236 513.64C282.486 513.773 282.681 513.93 282.82 514.109C282.962 514.288 283.071 514.445 283.148 514.582H283.242V513.52H284.49V520.211C284.49 520.773 284.36 521.235 284.098 521.596C283.837 521.957 283.483 522.224 283.037 522.397C282.594 522.57 282.094 522.657 281.537 522.657ZM281.524 518.911C281.891 518.911 282.2 518.826 282.453 518.655C282.709 518.482 282.902 518.235 283.033 517.914C283.166 517.59 283.233 517.202 283.233 516.751C283.233 516.31 283.168 515.922 283.037 515.587C282.906 515.252 282.715 514.991 282.462 514.803C282.209 514.613 281.897 514.518 281.524 514.518C281.141 514.518 280.821 514.617 280.566 514.816C280.31 515.012 280.117 515.279 279.986 515.617C279.858 515.955 279.794 516.333 279.794 516.751C279.794 517.18 279.86 517.556 279.99 517.88C280.121 518.204 280.314 518.457 280.57 518.638C280.828 518.82 281.147 518.911 281.524 518.911ZM287.473 511.339V520.066H286.199V511.339H287.473ZM292.008 520.198C291.363 520.198 290.808 520.06 290.342 519.785C289.879 519.506 289.521 519.116 289.268 518.613C289.018 518.107 288.893 517.515 288.893 516.836C288.893 516.165 289.018 515.574 289.268 515.063C289.521 514.552 289.873 514.153 290.325 513.866C290.78 513.579 291.311 513.435 291.919 513.435C292.288 513.435 292.646 513.496 292.993 513.618C293.339 513.741 293.65 513.932 293.926 514.194C294.202 514.455 294.419 514.795 294.578 515.212C294.737 515.627 294.817 516.131 294.817 516.725V517.177H289.613V516.222H293.568C293.568 515.887 293.5 515.59 293.363 515.332C293.227 515.07 293.035 514.864 292.788 514.714C292.544 514.563 292.257 514.488 291.927 514.488C291.569 514.488 291.257 514.576 290.99 514.752C290.726 514.925 290.521 515.153 290.376 515.434C290.234 515.712 290.163 516.015 290.163 516.341V517.087C290.163 517.525 290.24 517.897 290.393 518.204C290.55 518.511 290.767 518.745 291.045 518.907C291.324 519.066 291.649 519.145 292.021 519.145C292.263 519.145 292.483 519.111 292.682 519.043C292.881 518.972 293.052 518.867 293.197 518.728C293.342 518.589 293.453 518.417 293.53 518.212L294.736 518.43C294.639 518.785 294.466 519.096 294.216 519.363C293.969 519.627 293.658 519.833 293.283 519.981C292.91 520.126 292.486 520.198 292.008 520.198Z" fill="#0069FF"/>
</svg>
