<svg width="797" height="539" viewBox="0 0 797 539" fill="none" xmlns="http://www.w3.org/2000/svg">
<path d="M610.536 393.232C610.147 393.226 609.763 393.155 609.385 393.019C609.01 392.883 608.67 392.655 608.363 392.337C608.056 392.019 607.81 391.591 607.626 391.055C607.444 390.518 607.353 389.847 607.353 389.043C607.353 388.282 607.428 387.606 607.579 387.015C607.732 386.424 607.952 385.925 608.239 385.519C608.526 385.11 608.873 384.799 609.279 384.586C609.685 384.373 610.141 384.266 610.647 384.266C611.167 384.266 611.628 384.368 612.032 384.573C612.435 384.778 612.762 385.06 613.012 385.421C613.265 385.782 613.425 386.192 613.493 386.653H612.194C612.106 386.289 611.931 385.992 611.67 385.762C611.408 385.532 611.067 385.417 610.647 385.417C610.008 385.417 609.509 385.695 609.151 386.252C608.796 386.809 608.617 387.583 608.614 388.574H608.678C608.829 388.327 609.013 388.117 609.232 387.944C609.454 387.768 609.701 387.633 609.974 387.539C610.249 387.442 610.539 387.394 610.843 387.394C611.349 387.394 611.806 387.518 612.215 387.765C612.627 388.009 612.955 388.347 613.199 388.779C613.444 389.211 613.566 389.705 613.566 390.262C613.566 390.819 613.439 391.323 613.187 391.775C612.937 392.226 612.584 392.584 612.13 392.849C611.675 393.11 611.144 393.238 610.536 393.232ZM610.532 392.124C610.867 392.124 611.167 392.042 611.431 391.877C611.695 391.712 611.904 391.491 612.057 391.212C612.211 390.934 612.287 390.623 612.287 390.279C612.287 389.944 612.212 389.638 612.062 389.363C611.914 389.087 611.709 388.868 611.448 388.707C611.189 388.545 610.894 388.464 610.562 388.464C610.309 388.464 610.074 388.512 609.858 388.609C609.645 388.705 609.458 388.839 609.296 389.009C609.134 389.18 609.006 389.376 608.912 389.597C608.822 389.816 608.776 390.047 608.776 390.292C608.776 390.618 608.851 390.921 609.002 391.199C609.155 391.478 609.364 391.702 609.628 391.873C609.895 392.04 610.197 392.124 610.532 392.124ZM618.156 393.258C617.483 393.255 616.908 393.077 616.431 392.725C615.953 392.373 615.588 391.86 615.335 391.187C615.083 390.513 614.956 389.702 614.956 388.753C614.956 387.807 615.083 386.999 615.335 386.329C615.591 385.658 615.958 385.147 616.435 384.795C616.915 384.442 617.489 384.266 618.156 384.266C618.824 384.266 619.396 384.444 619.874 384.799C620.351 385.151 620.716 385.663 620.969 386.333C621.225 387.001 621.352 387.807 621.352 388.753C621.352 389.705 621.226 390.518 620.973 391.191C620.72 391.861 620.355 392.374 619.878 392.729C619.401 393.082 618.827 393.258 618.156 393.258ZM618.156 392.12C618.747 392.12 619.209 391.832 619.541 391.255C619.877 390.678 620.044 389.844 620.044 388.753C620.044 388.029 619.967 387.417 619.814 386.917C619.664 386.414 619.446 386.033 619.162 385.775C618.881 385.513 618.546 385.383 618.156 385.383C617.568 385.383 617.107 385.672 616.771 386.252C616.436 386.832 616.267 387.665 616.264 388.753C616.264 389.481 616.34 390.096 616.49 390.599C616.644 391.099 616.861 391.478 617.142 391.736C617.423 391.992 617.762 392.12 618.156 392.12ZM626.057 393.113V386.567H627.28V387.633H627.361C627.497 387.272 627.72 386.991 628.03 386.789C628.34 386.584 628.71 386.482 629.142 386.482C629.58 386.482 629.946 386.584 630.242 386.789C630.54 386.993 630.76 387.275 630.902 387.633H630.97C631.127 387.283 631.375 387.005 631.716 386.797C632.057 386.587 632.463 386.482 632.935 386.482C633.529 386.482 634.013 386.668 634.388 387.04C634.766 387.413 634.955 387.974 634.955 388.724V393.113H633.681V388.843C633.681 388.4 633.56 388.079 633.318 387.88C633.077 387.681 632.789 387.582 632.453 387.582C632.039 387.582 631.716 387.709 631.486 387.965C631.256 388.218 631.141 388.543 631.141 388.941V393.113H629.871V388.762C629.871 388.407 629.76 388.121 629.539 387.905C629.317 387.689 629.029 387.582 628.673 387.582C628.432 387.582 628.209 387.645 628.004 387.773C627.803 387.898 627.639 388.073 627.514 388.297C627.392 388.522 627.331 388.782 627.331 389.077V393.113H626.057ZM636.662 393.113V386.567H637.885V387.633H637.966C638.103 387.272 638.326 386.991 638.635 386.789C638.945 386.584 639.316 386.482 639.748 386.482C640.185 386.482 640.552 386.584 640.847 386.789C641.145 386.993 641.366 387.275 641.508 387.633H641.576C641.732 387.283 641.981 387.005 642.322 386.797C642.662 386.587 643.069 386.482 643.54 386.482C644.134 386.482 644.618 386.668 644.993 387.04C645.371 387.413 645.56 387.974 645.56 388.724V393.113H644.286V388.843C644.286 388.4 644.165 388.079 643.924 387.88C643.682 387.681 643.394 387.582 643.059 387.582C642.644 387.582 642.322 387.709 642.091 387.965C641.861 388.218 641.746 388.543 641.746 388.941V393.113H640.476V388.762C640.476 388.407 640.366 388.121 640.144 387.905C639.922 387.689 639.634 387.582 639.279 387.582C639.037 387.582 638.814 387.645 638.61 387.773C638.408 387.898 638.245 388.073 638.12 388.297C637.998 388.522 637.937 388.782 637.937 389.077V393.113H636.662Z" fill="black"/>
<path d="M665.244 388.966C665.439 388.771 665.439 388.455 665.244 388.259L662.062 385.077C661.867 384.882 661.55 384.882 661.355 385.077C661.16 385.273 661.16 385.589 661.355 385.784L664.183 388.613L661.355 391.441C661.16 391.636 661.16 391.953 661.355 392.148C661.55 392.344 661.867 392.344 662.062 392.148L665.244 388.966ZM649.683 388.259C649.488 388.455 649.488 388.771 649.683 388.966L652.865 392.148C653.06 392.344 653.377 392.344 653.572 392.148C653.767 391.953 653.767 391.636 653.572 391.441L650.744 388.613L653.572 385.784C653.767 385.589 653.767 385.273 653.572 385.077C653.377 384.882 653.06 384.882 652.865 385.077L649.683 388.259ZM664.89 388.113L650.037 388.113V389.113L664.89 389.113V388.113Z" fill="#B0B0B0"/>
<path d="M425.011 102.644C424.622 102.638 424.239 102.567 423.861 102.431C423.486 102.294 423.145 102.067 422.838 101.749C422.531 101.431 422.286 101.003 422.101 100.466C421.919 99.9292 421.828 99.2588 421.828 98.4548C421.828 97.6934 421.904 97.0173 422.054 96.4264C422.208 95.8355 422.428 95.3369 422.715 94.9307C423.002 94.5216 423.348 94.2105 423.754 93.9974C424.161 93.7844 424.617 93.6778 425.122 93.6778C425.642 93.6778 426.104 93.7801 426.507 93.9846C426.911 94.1892 427.237 94.4719 427.487 94.8327C427.74 95.1934 427.901 95.604 427.969 96.0642H426.669C426.581 95.7006 426.406 95.4037 426.145 95.1736C425.884 94.9434 425.543 94.8284 425.122 94.8284C424.483 94.8284 423.984 95.1068 423.627 95.6636C423.271 96.2204 423.092 96.9946 423.09 97.9861H423.154C423.304 97.7389 423.489 97.5287 423.708 97.3554C423.929 97.1792 424.176 97.0443 424.449 96.9506C424.725 96.854 425.014 96.8057 425.318 96.8057C425.824 96.8057 426.281 96.9292 426.69 97.1764C427.102 97.4207 427.431 97.7588 427.675 98.1906C427.919 98.6224 428.041 99.1167 428.041 99.6736C428.041 100.23 427.915 100.735 427.662 101.186C427.412 101.638 427.06 101.996 426.605 102.26C426.151 102.522 425.619 102.649 425.011 102.644ZM425.007 101.536C425.342 101.536 425.642 101.453 425.906 101.289C426.171 101.124 426.379 100.902 426.533 100.624C426.686 100.345 426.763 100.034 426.763 99.6906C426.763 99.3554 426.688 99.05 426.537 98.7744C426.389 98.4988 426.185 98.2801 425.923 98.1182C425.665 97.9562 425.369 97.8753 425.037 97.8753C424.784 97.8753 424.55 97.9236 424.334 98.0202C424.121 98.1167 423.933 98.2503 423.771 98.4207C423.609 98.5912 423.482 98.7872 423.388 99.0088C423.297 99.2275 423.252 99.4591 423.252 99.7034C423.252 100.03 423.327 100.333 423.477 100.611C423.631 100.889 423.84 101.114 424.104 101.284C424.371 101.452 424.672 101.536 425.007 101.536ZM432.632 102.669C431.959 102.666 431.383 102.489 430.906 102.137C430.429 101.784 430.064 101.272 429.811 100.598C429.558 99.925 429.432 99.1139 429.432 98.165C429.432 97.219 429.558 96.4108 429.811 95.7403C430.067 95.0699 430.433 94.5585 430.91 94.2062C431.39 93.854 431.964 93.6778 432.632 93.6778C433.299 93.6778 433.872 93.8554 434.349 94.2105C434.826 94.5628 435.192 95.0741 435.444 95.7446C435.7 96.4122 435.828 97.219 435.828 98.165C435.828 99.1167 435.701 99.9292 435.449 100.603C435.196 101.273 434.831 101.786 434.353 102.141C433.876 102.493 433.302 102.669 432.632 102.669ZM432.632 101.532C433.223 101.532 433.684 101.243 434.017 100.666C434.352 100.09 434.52 99.2559 434.52 98.165C434.52 97.4406 434.443 96.8284 434.29 96.3284C434.139 95.8256 433.922 95.4449 433.638 95.1863C433.356 94.925 433.021 94.7943 432.632 94.7943C432.044 94.7943 431.582 95.0841 431.247 95.6636C430.912 96.2432 430.743 97.077 430.74 98.165C430.74 98.8923 430.815 99.5074 430.966 100.01C431.119 100.51 431.336 100.889 431.618 101.148C431.899 101.404 432.237 101.532 432.632 101.532ZM440.532 102.524V95.979H441.755V97.0443H441.836C441.973 96.6835 442.196 96.4023 442.505 96.2006C442.815 95.996 443.186 95.8937 443.618 95.8937C444.055 95.8937 444.422 95.996 444.717 96.2006C445.015 96.4051 445.236 96.6863 445.378 97.0443H445.446C445.602 96.6949 445.851 96.4165 446.192 96.2091C446.532 95.9988 446.939 95.8937 447.41 95.8937C448.004 95.8937 448.488 96.0798 448.863 96.452C449.241 96.8241 449.43 97.3852 449.43 98.1352V102.524H448.156V98.2545C448.156 97.8113 448.035 97.4903 447.794 97.2915C447.552 97.0926 447.264 96.9932 446.929 96.9932C446.514 96.9932 446.192 97.121 445.961 97.3767C445.731 97.6295 445.616 97.9548 445.616 98.3525V102.524H444.346V98.1736C444.346 97.8184 444.236 97.5329 444.014 97.317C443.792 97.1011 443.504 96.9932 443.149 96.9932C442.907 96.9932 442.684 97.0571 442.48 97.1849C442.278 97.3099 442.115 97.4846 441.99 97.7091C441.868 97.9335 441.807 98.1934 441.807 98.4889V102.524H440.532ZM451.138 102.524V95.979H452.361V97.0443H452.442C452.578 96.6835 452.801 96.4023 453.111 96.2006C453.421 95.996 453.791 95.8937 454.223 95.8937C454.661 95.8937 455.027 95.996 455.323 96.2006C455.621 96.4051 455.841 96.6863 455.983 97.0443H456.051C456.208 96.6949 456.456 96.4165 456.797 96.2091C457.138 95.9988 457.544 95.8937 458.016 95.8937C458.609 95.8937 459.094 96.0798 459.469 96.452C459.847 96.8241 460.036 97.3852 460.036 98.1352V102.524H458.761V98.2545C458.761 97.8113 458.641 97.4903 458.399 97.2915C458.158 97.0926 457.869 96.9932 457.534 96.9932C457.119 96.9932 456.797 97.121 456.567 97.3767C456.337 97.6295 456.222 97.9548 456.222 98.3525V102.524H454.952V98.1736C454.952 97.8184 454.841 97.5329 454.619 97.317C454.398 97.1011 454.109 96.9932 453.754 96.9932C453.513 96.9932 453.29 97.0571 453.085 97.1849C452.884 97.3099 452.72 97.4846 452.595 97.7091C452.473 97.9335 452.412 98.1934 452.412 98.4889V102.524H451.138Z" fill="black"/>
<path d="M411.2 90.4806C411.005 90.2854 410.688 90.2854 410.493 90.4806L407.311 93.6626C407.116 93.8579 407.116 94.1744 407.311 94.3697C407.506 94.565 407.823 94.565 408.018 94.3697L410.846 91.5413L413.675 94.3697C413.87 94.565 414.187 94.565 414.382 94.3697C414.577 94.1744 414.577 93.8579 414.382 93.6626L411.2 90.4806ZM410.493 106.041C410.688 106.237 411.005 106.237 411.2 106.041L414.382 102.86C414.577 102.664 414.577 102.348 414.382 102.152C414.187 101.957 413.87 101.957 413.675 102.152L410.846 104.981L408.018 102.152C407.823 101.957 407.506 101.957 407.311 102.152C407.116 102.348 407.116 102.664 407.311 102.86L410.493 106.041ZM410.346 90.8342L410.346 105.688L411.346 105.688L411.346 90.8342L410.346 90.8342Z" fill="#B0B0B0"/>
</svg>
