<svg width="797" height="539" viewBox="0 0 797 539" fill="none" xmlns="http://www.w3.org/2000/svg">
<line x1="656.966" y1="220.852" x2="656.966" y2="374.573" stroke="black"/>
<rect x="650.537" y="270.105" width="2.87888" height="47.9541" stroke="black"/>
<rect x="656.985" y="240.113" width="6.26205" height="5.3251" stroke="black"/>
<rect x="656.985" y="337.474" width="6.26205" height="5.3251" stroke="black"/>
<rect x="663.815" y="242.558" width="2.49275" height="0.781336" stroke="black" stroke-width="0.781336"/>
<rect x="663.815" y="339.919" width="2.49275" height="0.781336" stroke="black" stroke-width="0.781336"/>
<line x1="654.583" y1="220.874" x2="652.476" y2="269.627" stroke="black"/>
<line x1="653.415" y1="318.559" x2="653.415" y2="320.789" stroke="black"/>
<line x1="653.916" y1="320.923" x2="651.976" y2="320.923" stroke="black"/>
<line x1="656.795" y1="221.352" x2="654.083" y2="221.352" stroke="black"/>
<line x1="657.032" y1="374.072" x2="653.983" y2="374.072" stroke="black"/>
<line x1="652.476" y1="321.391" x2="654.485" y2="374.554" stroke="black"/>
<rect x="121.755" y="85.5484" width="280.502" height="3.5367" stroke="black"/>
<rect x="199.427" y="93.159" width="6.42475" height="8.04633" stroke="black"/>
<rect x="202.163" y="101.698" width="0.952961" height="3.51331" stroke="black" stroke-width="0.952961"/>
<rect x="202.031" y="91.8823" width="1.07919" height="0.826729" stroke="black" stroke-width="0.826729"/>
<rect x="201.113" y="91.0244" width="2.9137" height="1.598" stroke="black"/>
<line x1="199.427" y1="86.6548" x2="199.427" y2="93.1224" stroke="black"/>
<line x1="206.364" y1="86.6548" x2="206.364" y2="93.1224" stroke="black"/>
<rect x="319.313" y="93.159" width="6.42475" height="8.04633" stroke="black"/>
<rect x="322.049" y="101.698" width="0.952961" height="3.51331" stroke="black" stroke-width="0.952961"/>
<rect x="321.916" y="91.8823" width="1.07919" height="0.826729" stroke="black" stroke-width="0.826729"/>
<rect x="320.999" y="91.0244" width="2.9137" height="1.598" stroke="black"/>
<line x1="319.313" y1="86.6548" x2="319.313" y2="93.1224" stroke="black"/>
<line x1="326.25" y1="86.6548" x2="326.25" y2="93.1224" stroke="black"/>
</svg>
