<svg width="798" height="538" viewBox="0 0 798 538" fill="none" xmlns="http://www.w3.org/2000/svg">
<rect x="0.5" y="-0.5" width="10.2266" height="3.87891" transform="matrix(1 0 0 -1 259.125 142.144)" stroke="black"/>
<mask id="path-2-inside-1_15_167" fill="white">
<path d="M259.125 143.144H270.352V133.086H259.125V143.144Z"/>
</mask>
<path d="M259.125 143.144V144.144H258.125V143.144H259.125ZM270.352 143.144H271.352V144.144H270.352V143.144ZM259.125 142.144H270.352V144.144H259.125V142.144ZM269.352 143.144V133.086H271.352V143.144H269.352ZM260.125 133.086V143.144H258.125V133.086H260.125Z" fill="black" mask="url(#path-2-inside-1_15_167)"/>
<circle cx="2.37545" cy="2.37545" r="1.87545" transform="matrix(1 0 0 -1 262.363 135.68)" stroke="black"/>
<mask id="path-5-inside-2_15_167" fill="white">
<path d="M270.352 133.304C270.352 132.567 270.207 131.837 269.925 131.156C269.643 130.475 269.229 129.856 268.708 129.335C268.187 128.814 267.568 128.4 266.887 128.118C266.206 127.836 265.476 127.691 264.739 127.691C264.002 127.691 263.272 127.836 262.591 128.118C261.91 128.4 261.291 128.814 260.77 129.335C260.248 129.856 259.835 130.475 259.553 131.156C259.271 131.837 259.125 132.567 259.125 133.304L260.141 133.304C260.141 132.701 260.26 132.103 260.491 131.545C260.722 130.987 261.061 130.48 261.488 130.053C261.915 129.626 262.422 129.288 262.979 129.057C263.537 128.826 264.135 128.707 264.739 128.707C265.343 128.707 265.94 128.826 266.498 129.057C267.056 129.288 267.563 129.626 267.99 130.053C268.417 130.48 268.755 130.987 268.986 131.545C269.217 132.103 269.336 132.701 269.336 133.304H270.352Z"/>
</mask>
<path d="M270.352 133.304C270.352 132.567 270.207 131.837 269.925 131.156C269.643 130.475 269.229 129.856 268.708 129.335C268.187 128.814 267.568 128.4 266.887 128.118C266.206 127.836 265.476 127.691 264.739 127.691C264.002 127.691 263.272 127.836 262.591 128.118C261.91 128.4 261.291 128.814 260.77 129.335C260.248 129.856 259.835 130.475 259.553 131.156C259.271 131.837 259.125 132.567 259.125 133.304L260.141 133.304C260.141 132.701 260.26 132.103 260.491 131.545C260.722 130.987 261.061 130.48 261.488 130.053C261.915 129.626 262.422 129.288 262.979 129.057C263.537 128.826 264.135 128.707 264.739 128.707C265.343 128.707 265.94 128.826 266.498 129.057C267.056 129.288 267.563 129.626 267.99 130.053C268.417 130.48 268.755 130.987 268.986 131.545C269.217 132.103 269.336 132.701 269.336 133.304H270.352Z" stroke="black" stroke-width="2" mask="url(#path-5-inside-2_15_167)"/>
<circle cx="2.37545" cy="2.37545" r="1.87545" transform="matrix(1 0 0 -1 173.67 121.059)" stroke="black"/>
<mask id="path-7-inside-3_15_167" fill="white">
<path d="M174.032 123.29C172.769 122.961 171.665 122.204 170.941 121.168C170.216 120.133 169.922 118.894 170.118 117.696C170.313 116.499 170.984 115.43 171.997 114.701C173.01 113.972 174.292 113.636 175.589 113.758L175.517 114.798C174.498 114.702 173.491 114.966 172.696 115.539C171.9 116.111 171.374 116.95 171.22 117.891C171.067 118.831 171.297 119.804 171.866 120.617C172.436 121.43 173.302 122.025 174.294 122.283L174.032 123.29Z"/>
</mask>
<path d="M174.032 123.29C172.769 122.961 171.665 122.204 170.941 121.168C170.216 120.133 169.922 118.894 170.118 117.696C170.313 116.499 170.984 115.43 171.997 114.701C173.01 113.972 174.292 113.636 175.589 113.758L175.517 114.798C174.498 114.702 173.491 114.966 172.696 115.539C171.9 116.111 171.374 116.95 171.22 117.891C171.067 118.831 171.297 119.804 171.866 120.617C172.436 121.43 173.302 122.025 174.294 122.283L174.032 123.29Z" stroke="black" stroke-width="2" mask="url(#path-7-inside-3_15_167)"/>
<mask id="path-8-inside-4_15_167" fill="white">
<path d="M266.91 123.364C268.11 123.229 269.227 122.629 270.046 121.682C270.866 120.735 271.329 119.507 271.346 118.236C271.363 116.965 270.933 115.74 270.14 114.8C269.346 113.859 268.245 113.269 267.049 113.143L266.933 114.181C267.886 114.281 268.764 114.752 269.396 115.501C270.029 116.251 270.372 117.227 270.358 118.24C270.344 119.253 269.975 120.232 269.322 120.986C268.669 121.741 267.779 122.219 266.823 122.327L266.91 123.364Z"/>
</mask>
<path d="M266.91 123.364C268.11 123.229 269.227 122.629 270.046 121.682C270.866 120.735 271.329 119.507 271.346 118.236C271.363 116.965 270.933 115.74 270.14 114.8C269.346 113.859 268.245 113.269 267.049 113.143L266.933 114.181C267.886 114.281 268.764 114.752 269.396 115.501C270.029 116.251 270.372 117.227 270.358 118.24C270.344 119.253 269.975 120.232 269.322 120.986C268.669 121.741 267.779 122.219 266.823 122.327L266.91 123.364Z" stroke="black" stroke-width="2" mask="url(#path-8-inside-4_15_167)"/>
<circle cx="2.37545" cy="2.37545" r="1.87545" transform="matrix(1 0 0 -1 263.588 120.007)" stroke="black"/>
<line y1="-0.5" x2="91.608" y2="-0.5" transform="matrix(0.999982 -0.00595673 -0.00595673 -0.999982 175.508 113.758)" stroke="black"/>
<line y1="-0.5" x2="40.2412" y2="-0.5" transform="matrix(1 -8.74228e-08 -8.74228e-08 -1 226.873 122.312)" stroke="black"/>
<line y1="-0.5" x2="88.0579" y2="-0.5" transform="matrix(0.986347 0.164681 0.164681 -0.986347 175.508 113.758)" stroke="black"/>
<line y1="-0.5" x2="86.4393" y2="-0.5" transform="matrix(0.98572 0.168392 0.168392 -0.98572 174.103 122.31)" stroke="black"/>
<rect x="0.5" y="-0.5" width="9.42904" height="20.3959" transform="matrix(1 0 0 -1 260.946 112.563)" stroke="black"/>
<rect x="0.5" y="-0.5" width="9.42904" height="7.36974" transform="matrix(1 0 0 -1 260.946 99.5365)" stroke="black"/>
<line x1="270.875" y1="118.048" x2="270.875" y2="112.677" stroke="black"/>
<rect x="0.5" y="-0.5" width="11.3009" height="15.7795" transform="matrix(1 0 0 -1 249.597 107.946)" stroke="black"/>
<path d="M248.198 108.446H250.033V92.6668H248.198C247.732 92.6668 247.354 93.0443 247.354 93.5101V107.603C247.354 108.069 247.732 108.446 248.198 108.446Z" stroke="black"/>
<path d="M284.216 108.446H282.902V92.6668H284.216C284.682 92.6668 285.06 93.0443 285.06 93.5101V107.603C285.06 108.069 284.682 108.446 284.216 108.446Z" stroke="black"/>
<rect x="0.5" y="-0.5" width="11.8713" height="15.7795" transform="matrix(1 0 0 -1 270.508 107.946)" stroke="black"/>
<rect x="0.5" y="-0.5" width="1.99414" height="3.7819" transform="matrix(1 0 0 -1 244.784 101.865)" stroke="black"/>
<rect x="287.13" y="102.365" width="1.95947" height="3.7819" transform="rotate(-180 287.13 102.365)" stroke="black"/>
<rect x="0.5" y="-0.5" width="260.634" height="8.41846" transform="matrix(1 0 0 -1 132.141 92.1076)" stroke="black"/>
<line y1="-0.5" x2="147.994" y2="-0.5" transform="matrix(4.37114e-08 1 1 -4.37114e-08 621.36 223.174)" stroke="black"/>
<rect x="-0.5" y="0.5" width="27.5533" height="14.5623" transform="matrix(-1 0 0 1 666.188 297.171)" stroke="black"/>
<rect x="-0.5" y="0.5" width="14.1079" height="19.2968" transform="matrix(-1 0 0 1 638.549 295.083)" stroke="black"/>
<rect x="-0.5" y="0.5" width="22.6683" height="14.5623" transform="matrix(-1 0 0 1 666.188 297.171)" stroke="black"/>
<circle cx="2.17623" cy="2.17623" r="1.67623" transform="matrix(-1 0 0 1 661.817 302.707)" stroke="black"/>
<circle cx="7.55063" cy="7.55063" r="7.05063" transform="matrix(-1 0 0 1 667.191 297.332)" stroke="black"/>
<rect x="-0.5" y="0.5" width="8.36976" height="2.03918" transform="matrix(-1 0 0 1 647.004 295.083)" stroke="black"/>
<rect x="647.504" y="314.937" width="8.36987" height="2.70123" transform="rotate(180 647.504 314.937)" stroke="black"/>
<rect x="-0.5" y="0.5" width="13.0841" height="4.09924" transform="matrix(-1 0 0 1 646.394 290.961)" stroke="black"/>
<rect x="646.894" y="318.471" width="13.0841" height="3.51299" transform="rotate(180 646.894 318.471)" stroke="black"/>
<rect x="-0.5" y="0.5" width="8.26114" height="4.09924" transform="matrix(-1 0 0 1 632.702 290.961)" stroke="black"/>
<rect x="633.202" y="318.471" width="8.26114" height="3.51299" transform="rotate(180 633.202 318.471)" stroke="black"/>
<rect x="-0.5" y="0.5" width="3.45252" height="27.0098" transform="matrix(-1 0 0 1 623.847 290.961)" stroke="black"/>
<rect x="-0.25" y="0.25" width="3.23012" height="2.36908" transform="matrix(-1 0 0 1 645.912 289.106)" stroke="black" stroke-width="0.5"/>
<rect x="-0.25" y="0.25" width="3.23012" height="2.36908" transform="matrix(-1 0 0 1 645.912 318.131)" stroke="black" stroke-width="0.5"/>
<rect x="-0.25" y="0.25" width="3.23012" height="2.36908" transform="matrix(-1 0 0 1 642.779 289.106)" stroke="black" stroke-width="0.5"/>
<rect x="-0.25" y="0.25" width="3.23012" height="2.36908" transform="matrix(-1 0 0 1 642.779 318.131)" stroke="black" stroke-width="0.5"/>
<rect x="-0.5" y="0.5" width="3.78685" height="2.2193" transform="matrix(-1 0 0 1 630.702 276.401)" stroke="black"/>
<rect x="631.202" y="333.049" width="3.78685" height="1.64809" transform="rotate(180 631.202 333.049)" stroke="black"/>
<rect x="-0.5" y="0.5" width="13.1284" height="12.3389" transform="matrix(-1 0 0 1 633.508 278.636)" stroke="black"/>
<rect x="634.008" y="331.309" width="13.1284" height="12.6776" transform="rotate(180 634.008 331.309)" stroke="black"/>
<rect x="-0.5" y="0.5" width="3.35216" height="12.407" transform="matrix(-1 0 0 1 623.732 266.214)" stroke="black"/>
<rect x="-0.5" y="0.5" width="3.35216" height="11.8359" transform="matrix(-1 0 0 1 623.732 330.882)" stroke="black"/>
<rect x="-0.289643" y="0.289643" width="0.579287" height="6.36258" transform="matrix(-1 0 0 1 624.93 269.161)" fill="black" stroke="black" stroke-width="0.579287"/>
<rect x="-0.289643" y="0.289643" width="0.579287" height="6.36258" transform="matrix(-1 0 0 1 624.93 333.829)" fill="black" stroke="black" stroke-width="0.579287"/>
</svg>
