<svg width="798" height="538" viewBox="0 0 798 538" fill="none" xmlns="http://www.w3.org/2000/svg">
<path d="M615.086 402.575C615.475 402.578 615.858 402.649 616.236 402.788C616.614 402.927 616.955 403.155 617.259 403.47C617.566 403.785 617.81 404.212 617.992 404.749C618.177 405.283 618.27 405.947 618.273 406.743C618.273 407.507 618.197 408.187 618.043 408.784C617.89 409.378 617.67 409.879 617.383 410.288C617.099 410.697 616.753 411.008 616.347 411.222C615.941 411.435 615.483 411.541 614.975 411.541C614.455 411.541 613.993 411.439 613.59 411.234C613.187 411.03 612.858 410.747 612.606 410.386C612.353 410.023 612.195 409.605 612.133 409.133H613.432C613.518 409.508 613.691 409.812 613.952 410.045C614.216 410.276 614.557 410.391 614.975 410.391C615.614 410.391 616.113 410.112 616.471 409.555C616.829 408.996 617.009 408.214 617.012 407.212H616.944C616.796 407.456 616.611 407.666 616.39 407.842C616.171 408.018 615.925 408.155 615.652 408.251C615.38 408.348 615.089 408.396 614.779 408.396C614.276 408.396 613.819 408.273 613.407 408.026C612.995 407.778 612.667 407.439 612.422 407.007C612.178 406.575 612.056 406.082 612.056 405.528C612.056 404.977 612.181 404.477 612.431 404.028C612.684 403.579 613.036 403.224 613.488 402.963C613.942 402.699 614.475 402.57 615.086 402.575ZM615.09 403.683C614.758 403.683 614.458 403.766 614.191 403.93C613.927 404.092 613.718 404.312 613.564 404.591C613.411 404.866 613.334 405.173 613.334 405.511C613.334 405.849 613.408 406.156 613.556 406.432C613.706 406.704 613.911 406.922 614.17 407.084C614.431 407.243 614.729 407.322 615.064 407.322C615.314 407.322 615.547 407.274 615.763 407.177C615.979 407.081 616.168 406.947 616.33 406.777C616.492 406.604 616.618 406.408 616.709 406.189C616.8 405.97 616.846 405.74 616.846 405.499C616.846 405.177 616.769 404.879 616.616 404.604C616.465 404.328 616.258 404.106 615.993 403.939C615.729 403.768 615.428 403.683 615.09 403.683ZM622.851 411.567C622.178 411.564 621.602 411.386 621.125 411.034C620.648 410.682 620.283 410.169 620.03 409.496C619.777 408.822 619.651 408.011 619.651 407.062C619.651 406.116 619.777 405.308 620.03 404.638C620.286 403.967 620.652 403.456 621.129 403.104C621.61 402.751 622.183 402.575 622.851 402.575C623.519 402.575 624.091 402.753 624.568 403.108C625.046 403.46 625.411 403.972 625.663 404.642C625.919 405.31 626.047 406.116 626.047 407.062C626.047 408.014 625.921 408.827 625.668 409.5C625.415 410.17 625.05 410.683 624.573 411.038C624.095 411.391 623.521 411.567 622.851 411.567ZM622.851 410.429C623.442 410.429 623.904 410.141 624.236 409.564C624.571 408.987 624.739 408.153 624.739 407.062C624.739 406.338 624.662 405.726 624.509 405.226C624.358 404.723 624.141 404.342 623.857 404.084C623.575 403.822 623.24 403.692 622.851 403.692C622.263 403.692 621.801 403.981 621.466 404.561C621.131 405.141 620.962 405.974 620.959 407.062C620.959 407.79 621.034 408.405 621.185 408.908C621.338 409.408 621.556 409.787 621.837 410.045C622.118 410.301 622.456 410.429 622.851 410.429ZM630.752 411.422V404.876H631.975V405.942H632.056C632.192 405.581 632.415 405.3 632.725 405.098C633.034 404.893 633.405 404.791 633.837 404.791C634.274 404.791 634.641 404.893 634.936 405.098C635.235 405.302 635.455 405.584 635.597 405.942H635.665C635.821 405.592 636.07 405.314 636.411 405.106C636.752 404.896 637.158 404.791 637.629 404.791C638.223 404.791 638.708 404.977 639.083 405.349C639.46 405.722 639.649 406.283 639.649 407.033V411.422H638.375V407.152C638.375 406.709 638.254 406.388 638.013 406.189C637.771 405.99 637.483 405.891 637.148 405.891C636.733 405.891 636.411 406.018 636.181 406.274C635.95 406.527 635.835 406.852 635.835 407.25V411.422H634.565V407.071C634.565 406.716 634.455 406.43 634.233 406.214C634.011 405.999 633.723 405.891 633.368 405.891C633.127 405.891 632.904 405.954 632.699 406.082C632.497 406.207 632.334 406.382 632.209 406.606C632.087 406.831 632.026 407.091 632.026 407.386V411.422H630.752ZM641.357 411.422V404.876H642.58V405.942H642.661C642.797 405.581 643.02 405.3 643.33 405.098C643.64 404.893 644.01 404.791 644.442 404.791C644.88 404.791 645.246 404.893 645.542 405.098C645.84 405.302 646.06 405.584 646.202 405.942H646.27C646.427 405.592 646.675 405.314 647.016 405.106C647.357 404.896 647.763 404.791 648.235 404.791C648.829 404.791 649.313 404.977 649.688 405.349C650.066 405.722 650.255 406.283 650.255 407.033V411.422H648.981V407.152C648.981 406.709 648.86 406.388 648.618 406.189C648.377 405.99 648.089 405.891 647.753 405.891C647.339 405.891 647.016 406.018 646.786 406.274C646.556 406.527 646.441 406.852 646.441 407.25V411.422H645.171V407.071C645.171 406.716 645.06 406.43 644.839 406.214C644.617 405.999 644.329 405.891 643.973 405.891C643.732 405.891 643.509 405.954 643.304 406.082C643.103 406.207 642.939 406.382 642.814 406.606C642.692 406.831 642.631 407.091 642.631 407.386V411.422H641.357Z" fill="black"/>
<path d="M664.754 391.507C664.95 391.312 664.95 390.995 664.754 390.8L661.572 387.618C661.377 387.423 661.061 387.423 660.865 387.618C660.67 387.813 660.67 388.13 660.865 388.325L663.694 391.154L660.865 393.982C660.67 394.177 660.67 394.494 660.865 394.689C661.061 394.885 661.377 394.885 661.572 394.689L664.754 391.507ZM620.434 390.8C620.239 390.995 620.239 391.312 620.434 391.507L623.616 394.689C623.811 394.885 624.128 394.885 624.323 394.689C624.518 394.494 624.518 394.177 624.323 393.982L621.495 391.154L624.323 388.325C624.518 388.13 624.518 387.813 624.323 387.618C624.128 387.423 623.811 387.423 623.616 387.618L620.434 390.8ZM664.401 390.654H620.788V391.654H664.401V390.654Z" fill="#B0B0B0"/>
<path d="M428.448 111.425C428.837 111.428 429.221 111.499 429.598 111.638C429.976 111.777 430.317 112.004 430.621 112.32C430.928 112.635 431.172 113.061 431.354 113.598C431.539 114.132 431.633 114.797 431.635 115.592C431.635 116.357 431.559 117.037 431.405 117.634C431.252 118.227 431.032 118.729 430.745 119.138C430.461 119.547 430.116 119.858 429.709 120.071C429.303 120.284 428.846 120.391 428.337 120.391C427.817 120.391 427.356 120.288 426.952 120.084C426.549 119.879 426.221 119.597 425.968 119.236C425.715 118.872 425.557 118.455 425.495 117.983H426.794C426.88 118.358 427.053 118.662 427.314 118.895C427.579 119.125 427.919 119.24 428.337 119.24C428.976 119.24 429.475 118.962 429.833 118.405C430.191 117.845 430.371 117.064 430.374 116.061H430.306C430.158 116.305 429.973 116.516 429.752 116.692C429.533 116.868 429.287 117.004 429.015 117.101C428.742 117.197 428.451 117.246 428.141 117.246C427.638 117.246 427.181 117.122 426.769 116.875C426.357 116.628 426.029 116.288 425.785 115.857C425.54 115.425 425.418 114.932 425.418 114.378C425.418 113.827 425.543 113.327 425.793 112.878C426.046 112.429 426.398 112.074 426.85 111.813C427.304 111.548 427.837 111.419 428.448 111.425ZM428.452 112.533C428.12 112.533 427.82 112.615 427.553 112.78C427.289 112.942 427.08 113.162 426.927 113.44C426.773 113.716 426.696 114.023 426.696 114.361C426.696 114.699 426.77 115.006 426.918 115.281C427.069 115.554 427.273 115.771 427.532 115.933C427.793 116.092 428.091 116.172 428.427 116.172C428.677 116.172 428.91 116.124 429.125 116.027C429.341 115.93 429.53 115.797 429.692 115.626C429.854 115.453 429.981 115.257 430.071 115.038C430.162 114.82 430.208 114.59 430.208 114.348C430.208 114.027 430.131 113.729 429.978 113.453C429.827 113.178 429.62 112.956 429.356 112.788C429.091 112.618 428.79 112.533 428.452 112.533ZM436.213 120.416C435.54 120.413 434.965 120.236 434.487 119.884C434.01 119.531 433.645 119.019 433.392 118.345C433.139 117.672 433.013 116.861 433.013 115.912C433.013 114.966 433.139 114.158 433.392 113.487C433.648 112.817 434.014 112.305 434.492 111.953C434.972 111.601 435.546 111.425 436.213 111.425C436.881 111.425 437.453 111.602 437.93 111.957C438.408 112.31 438.773 112.821 439.026 113.492C439.281 114.159 439.409 114.966 439.409 115.912C439.409 116.864 439.283 117.676 439.03 118.349C438.777 119.02 438.412 119.533 437.935 119.888C437.457 120.24 436.884 120.416 436.213 120.416ZM436.213 119.278C436.804 119.278 437.266 118.99 437.598 118.413C437.933 117.837 438.101 117.003 438.101 115.912C438.101 115.188 438.024 114.575 437.871 114.075C437.72 113.572 437.503 113.192 437.219 112.933C436.938 112.672 436.602 112.541 436.213 112.541C435.625 112.541 435.163 112.831 434.828 113.411C434.493 113.99 434.324 114.824 434.321 115.912C434.321 116.639 434.396 117.254 434.547 117.757C434.7 118.257 434.918 118.636 435.199 118.895C435.48 119.151 435.818 119.278 436.213 119.278ZM444.114 120.271V113.726H445.337V114.791H445.418C445.554 114.43 445.777 114.149 446.087 113.947C446.396 113.743 446.767 113.641 447.199 113.641C447.636 113.641 448.003 113.743 448.298 113.947C448.597 114.152 448.817 114.433 448.959 114.791H449.027C449.183 114.442 449.432 114.163 449.773 113.956C450.114 113.746 450.52 113.641 450.992 113.641C451.585 113.641 452.07 113.827 452.445 114.199C452.823 114.571 453.011 115.132 453.011 115.882V120.271H451.737V116.001C451.737 115.558 451.617 115.237 451.375 115.038C451.134 114.84 450.845 114.74 450.51 114.74C450.095 114.74 449.773 114.868 449.543 115.124C449.313 115.376 449.198 115.702 449.198 116.099V120.271H447.928V115.921C447.928 115.565 447.817 115.28 447.595 115.064C447.374 114.848 447.085 114.74 446.73 114.74C446.489 114.74 446.266 114.804 446.061 114.932C445.859 115.057 445.696 115.232 445.571 115.456C445.449 115.68 445.388 115.94 445.388 116.236V120.271H444.114ZM454.719 120.271V113.726H455.942V114.791H456.023C456.16 114.43 456.383 114.149 456.692 113.947C457.002 113.743 457.373 113.641 457.804 113.641C458.242 113.641 458.608 113.743 458.904 113.947C459.202 114.152 459.422 114.433 459.564 114.791H459.633C459.789 114.442 460.037 114.163 460.378 113.956C460.719 113.746 461.125 113.641 461.597 113.641C462.191 113.641 462.675 113.827 463.05 114.199C463.428 114.571 463.617 115.132 463.617 115.882V120.271H462.343V116.001C462.343 115.558 462.222 115.237 461.981 115.038C461.739 114.84 461.451 114.74 461.116 114.74C460.701 114.74 460.378 114.868 460.148 115.124C459.918 115.376 459.803 115.702 459.803 116.099V120.271H458.533V115.921C458.533 115.565 458.422 115.28 458.201 115.064C457.979 114.848 457.691 114.74 457.336 114.74C457.094 114.74 456.871 114.804 456.667 114.932C456.465 115.057 456.302 115.232 456.177 115.456C456.054 115.68 455.993 115.94 455.993 116.236V120.271H454.719Z" fill="black"/>
<path d="M414.185 88.0448C413.99 87.8496 413.673 87.8496 413.478 88.0448L410.296 91.2268C410.101 91.4221 410.101 91.7386 410.296 91.9339C410.491 92.1292 410.808 92.1292 411.003 91.9339L413.832 89.1055L416.66 91.9339C416.855 92.1292 417.172 92.1292 417.367 91.9339C417.562 91.7386 417.562 91.4221 417.367 91.2268L414.185 88.0448ZM413.478 143.498C413.673 143.693 413.99 143.693 414.185 143.498L417.367 140.316C417.562 140.121 417.562 139.804 417.367 139.609C417.172 139.414 416.855 139.414 416.66 139.609L413.832 142.437L411.003 139.609C410.808 139.414 410.491 139.414 410.296 139.609C410.101 139.804 410.101 140.121 410.296 140.316L413.478 143.498ZM413.332 88.3984L413.332 143.144L414.332 143.144L414.332 88.3984L413.332 88.3984Z" fill="#B0B0B0"/>
</svg>
